<?xml version="1.0" standalone="no"?>
<!DOCTYPE svg PUBLIC "-//W3C//DTD SVG 20010904//EN"
 "http://www.w3.org/TR/2001/REC-SVG-20010904/DTD/svg10.dtd">
<svg version="1.0" xmlns="http://www.w3.org/2000/svg"
 width="512.000000pt" height="512.000000pt" viewBox="0 0 512.000000 512.000000"
 preserveAspectRatio="xMidYMid meet">
<metadata>
Created by potrace 1.14, written by Peter Selinger 2001-2017
</metadata>
<g transform="translate(0.000000,512.000000) scale(0.100000,-0.100000)"
fill="#000000" stroke="none">
<path d="M2380 5110 c-1106 -80 -2029 -855 -2300 -1929 -52 -209 -72 -380 -72
-621 0 -241 20 -412 72 -621 231 -917 942 -1628 1859 -1859 209 -52 380 -72
621 -72 241 0 412 20 621 72 917 231 1628 942 1859 1859 52 209 72 380 72 621
0 241 -20 412 -72 621 -255 1009 -1089 1762 -2115 1908 -164 23 -396 32 -545
21z m292 -949 c151 -52 253 -174 280 -335 45 -270 -198 -511 -472 -469 -205
32 -350 199 -352 405 -1 187 105 335 291 403 55 21 188 18 253 -4z m-962 -896
c80 -14 149 -30 153 -34 18 -18 123 -216 116 -219 -4 -2 -85 11 -179 28 -95
17 -173 30 -175 28 -6 -7 -554 -1212 -552 -1214 7 -7 819 -254 835 -254 11 0
257 82 548 182 291 99 538 180 549 180 11 -1 209 -53 440 -115 231 -63 422
-112 424 -111 4 3 -548 1255 -558 1267 -4 4 -48 15 -97 24 -49 9 -90 18 -92
19 -5 3 89 173 99 179 11 7 271 -34 282 -45 11 -10 916 -1874 912 -1878 -2 -2
-314 83 -695 189 l-693 193 -581 -193 -581 -193 -545 190 c-299 104 -546 194
-548 200 -2 7 720 1565 745 1605 3 5 15 6 27 4 11 -3 86 -17 166 -32z"/>
</g>
</svg>
