<svg xmlns="http://www.w3.org/2000/svg" xmlns:xlink="http://www.w3.org/1999/xlink" version="1.1" id="layer" x="0px" y="0px" style="enable-background:new 0 0 652 652;" xml:space="preserve" viewBox="21.8 248 600.1 147.3">
<style type="text/css">
	.st0{fill:#EC1C24;}
	.st1{fill:#254AA4;}
	.st2{fill:#0492D0;}
</style>
<path class="st0" d="M224.7,279.5L224.7,279.5c0-7.2-5.4-8.9-8.1-9.4H58.1c-3.2-6-9.6-9.9-16.8-9.9c-10.8,0-19.5,8.7-19.5,19.6  c0,10.7,8.6,19.4,19.5,19.4c7.1,0,13.6-4,16.8-9.9h147.6v39.2h19v-39.2V279.5z M41.4,287L41.4,287c-3.9,0-7.1-3.2-7.1-7.2  c0-4,3.2-7.4,7.1-7.4c3.9,0,7.1,3.5,7.1,7.4C48.5,283.7,45.3,287,41.4,287z"/>
<path class="st1" d="M224.7,375.9L224.7,375.9v-9.4v-34h-19v34h-24.4c-3.4-6-9.9-10.2-17-10.2c-10.6,0-19.5,8.7-19.5,19.6  c0,10.7,8.9,19.4,19.5,19.4c7.1,0,13.6-4,17-9.9h33.8C215.1,385.3,224.7,385.3,224.7,375.9z M164.3,383.1L164.3,383.1  c-3.9,0-7.1-3.2-7.1-7.2c0-4,3.2-7.2,7.1-7.2c3.9,0,7.1,3.2,7.1,7.2C171.5,379.8,168.3,383.1,164.3,383.1z"/>
<path class="st2" d="M224.7,319.2L224.7,319.2H119.5c-3.2-6-9.6-10.2-16.8-10.2c-10.8,0-19.5,8.9-19.5,19.6s8.6,19.6,19.5,19.6  c7.1,0,13.6-4.2,16.8-10.2h105.2V319.2z M102.7,335.9L102.7,335.9c-3.9,0-7.4-3.2-7.4-7.2s3.4-7.2,7.4-7.2c3.9,0,7.1,3.2,7.1,7.2  S106.7,335.9,102.7,335.9z"/>
<path class="st1" d="M403.8,248h12.3c0,10.9-8.9,19.6-19.4,19.6c-10.6,0-19.2-8.7-19.2-19.6h12.1c0,4.2,3.2,7.4,7.2,7.4l0,0  C400.6,255.4,403.8,252.2,403.8,248z M337.3,272.3L337.3,272.3c0-1.2-1.2-2.5-2.5-2.5h-14.3c-1.2,0-2.2,1.2-2.2,2.5v1.5h-0.2v44  h-50.3v-45.4c0-1.2-1-2.5-2.5-2.5h-14c-1.5,0-2.5,1.2-2.5,2.5l0,110.2v0.7h0.2c0.2,1,1,1.7,2.2,1.7h14c1,0,2.2-0.7,2.5-1.7  c0-0.2,0-48.4,0-48.4h50.3l0,48.4h0.2c0.5,1,1.2,1.7,2.2,1.7h14.3c1.2,0,2.5-1.2,2.5-2.5V272.3z M439.8,367.7L439.8,367.7l-55.2,0.2  l51.5-78.2c0,0,7.4-10.2,5.4-15.1c-1.2-3-3.9-4.2-6.1-4.5c-0.3,0-0.5,0-0.5,0l-77.4,0c-1.2,0-2.2,0.5-2.2,1.7v12.9c0,1,1,2,2,2v0.2  h57.2l-55.7,82.9c-1.5,2-3.9,5.7-3,9.4c1.2,3.7,3.7,5.7,7.9,5.7h76.6v-0.2c1-0.2,1.7-1,1.7-2v-12.9C442,368.7,441,367.7,439.8,367.7  z M533.7,303.9c0,27.3-22.4,34.5-35.5,34.5h-21.7l0.2,44.4c0,1.2-1.2,2.5-2.5,2.5H460c-1.2,0-2.5-1.2-2.5-2.5V277  c0-4.7,3-7.2,7.7-7.2h31.3l0,0C520.1,269.8,533.7,282.7,533.7,303.9z M514.4,303.9c0-7.5-3.2-16.4-18.5-16.4h-19.5v34h21.7l0,0  C500.9,321.5,514.4,320.5,514.4,303.9z M621.9,303.9c0,27.3-22.4,34.5-35.5,34.5h-21.7v44.4c0,1.2-1,2.5-2.2,2.5l-14.3,0  c-1.2,0-2.5-1.2-2.5-2.5l0-105.8c0-4.7,3-7.2,7.7-7.2h31.3l0,0C608.3,269.8,621.9,282.7,621.9,303.9z M602.7,303.9  c0-7.5-3.2-16.4-18.5-16.4h-19.5v34h21.7l0,0C589.1,321.5,602.7,320.5,602.7,303.9z"/>
</svg>