<?xml version="1.0" encoding="UTF-8"?>
<svg xmlns="http://www.w3.org/2000/svg" xmlns:xlink="http://www.w3.org/1999/xlink" width="256pt" height="54pt" viewBox="0 0 256 54" version="1.1">
<g id="surface1">
<path style=" stroke:none;fill-rule:evenodd;fill:rgb(13.699341%,12.199402%,12.5%);fill-opacity:1;" d="M 52.59375 16.316406 L 53.085938 16.742188 L 53.558594 17.195313 L 54.007813 17.667969 L 54.433594 18.160156 L 54.839844 18.675781 L 55.214844 19.207031 L 55.570313 19.761719 L 55.898438 20.328125 L 56.195313 20.917969 L 56.46875 21.519531 L 56.710938 22.136719 L 56.925781 22.769531 L 57.109375 23.414063 L 57.261719 24.074219 L 57.378906 24.742188 L 57.464844 25.421875 L 57.519531 26.113281 L 57.535156 26.8125 L 57.519531 27.511719 L 57.464844 28.203125 L 57.378906 28.882813 L 57.261719 29.550781 L 57.109375 30.210938 L 56.925781 30.855469 L 56.710938 31.488281 L 56.46875 32.105469 L 56.195313 32.707031 L 55.898438 33.292969 L 55.570313 33.863281 L 55.21875 34.417969 L 54.839844 34.949219 L 54.433594 35.464844 L 54.007813 35.957031 L 53.558594 36.429688 L 53.085938 36.882813 L 52.59375 37.308594 L 52.082031 37.714844 L 51.546875 38.09375 L 50.996094 38.449219 L 50.429688 38.777344 L 49.84375 39.078125 L 49.242188 39.351563 L 48.625 39.59375 L 47.992188 39.808594 L 47.347656 39.996094 L 46.691406 40.148438 L 46.019531 40.269531 L 45.339844 40.355469 L 44.652344 40.410156 L 43.957031 40.429688 L 34.789063 40.429688 L 34.921875 40.519531 L 35.214844 40.707031 L 35.507813 40.886719 L 35.804688 41.058594 L 36.105469 41.226563 L 36.410156 41.390625 L 36.71875 41.546875 L 37.03125 41.695313 L 37.347656 41.839844 L 37.988281 42.105469 L 38.316406 42.226563 L 38.644531 42.34375 L 38.976563 42.453125 L 39.3125 42.554688 L 39.652344 42.648438 L 39.992188 42.738281 L 40.339844 42.820313 L 40.6875 42.894531 L 41.035156 42.960938 L 41.390625 43.019531 L 41.746094 43.070313 L 42.101563 43.113281 L 42.460938 43.148438 L 42.824219 43.175781 L 43.1875 43.195313 L 43.554688 43.207031 L 43.917969 43.210938 L 44.765625 43.191406 L 45.597656 43.128906 L 46.417969 43.023438 L 47.226563 42.878906 L 48.019531 42.695313 L 48.796875 42.476563 L 49.558594 42.21875 L 50.304688 41.921875 L 51.03125 41.59375 L 51.738281 41.234375 L 52.421875 40.839844 L 53.089844 40.410156 L 53.730469 39.953125 L 54.351563 39.46875 L 54.945313 38.953125 L 55.515625 38.410156 L 56.058594 37.839844 L 56.574219 37.246094 L 57.058594 36.625 L 57.519531 35.980469 L 57.945313 35.316406 L 58.339844 34.628906 L 58.703125 33.921875 L 59.03125 33.195313 L 59.324219 32.453125 L 59.582031 31.691406 L 59.800781 30.910156 L 59.984375 30.117188 L 60.128906 29.3125 L 60.234375 28.492188 L 60.296875 27.65625 L 60.316406 26.8125 L 60.296875 25.96875 L 60.234375 25.136719 L 60.128906 24.316406 L 59.984375 23.507813 L 59.800781 22.714844 L 59.582031 21.9375 L 59.324219 21.175781 L 59.03125 20.429688 L 58.703125 19.703125 L 58.339844 18.996094 L 57.945313 18.3125 L 57.519531 17.644531 L 57.058594 17.003906 L 56.574219 16.382813 L 56.058594 15.789063 L 55.515625 15.21875 L 54.945313 14.675781 L 54.351563 14.160156 L 53.730469 13.671875 L 53.089844 13.214844 L 52.421875 12.789063 L 51.738281 12.394531 L 51.03125 12.03125 L 50.304688 11.703125 L 49.558594 11.410156 L 48.796875 11.152344 L 48.019531 10.933594 L 47.226563 10.75 L 46.417969 10.605469 L 45.597656 10.5 L 44.765625 10.4375 L 43.917969 10.417969 L 43.554688 10.421875 L 43.1875 10.433594 L 42.824219 10.453125 L 42.460938 10.480469 L 42.101563 10.515625 L 41.742188 10.558594 L 41.390625 10.609375 L 41.035156 10.667969 L 40.6875 10.734375 L 40.339844 10.808594 L 39.992188 10.890625 L 39.652344 10.976563 L 39.3125 11.074219 L 38.976563 11.175781 L 38.644531 11.285156 L 38.316406 11.402344 L 37.988281 11.523438 L 37.667969 11.652344 L 37.347656 11.789063 L 37.03125 11.933594 L 36.71875 12.082031 L 36.410156 12.238281 L 36.105469 12.398438 L 35.804688 12.566406 L 35.507813 12.742188 L 35.214844 12.921875 L 34.925781 13.105469 L 34.789063 13.199219 L 43.957031 13.199219 L 44.652344 13.21875 L 45.339844 13.269531 L 46.019531 13.359375 L 46.691406 13.480469 L 47.347656 13.632813 L 47.992188 13.816406 L 48.625 14.03125 L 49.242188 14.277344 L 49.84375 14.546875 L 50.429688 14.847656 L 50.996094 15.175781 L 51.546875 15.53125 L 52.082031 15.910156 Z M 45.515625 29.699219 L 45.652344 29.621094 L 45.785156 29.535156 L 45.914063 29.445313 L 46.039063 29.347656 L 46.273438 29.136719 L 46.378906 29.023438 L 46.480469 28.902344 L 46.582031 28.777344 L 46.671875 28.648438 L 46.757813 28.515625 L 46.835938 28.378906 L 46.90625 28.238281 L 46.972656 28.09375 L 47.03125 27.945313 L 47.082031 27.792969 L 47.128906 27.636719 L 47.164063 27.476563 L 47.191406 27.316406 L 47.214844 27.152344 L 47.226563 26.984375 L 47.230469 26.8125 L 47.226563 26.644531 L 47.214844 26.472656 L 47.191406 26.308594 L 47.164063 26.148438 L 47.128906 25.988281 L 47.082031 25.832031 L 47.03125 25.679688 L 46.972656 25.53125 L 46.90625 25.386719 L 46.835938 25.246094 L 46.757813 25.109375 L 46.671875 24.976563 L 46.578125 24.84375 L 46.480469 24.722656 L 46.378906 24.601563 L 46.269531 24.488281 L 46.15625 24.378906 L 46.039063 24.277344 L 45.914063 24.179688 L 45.785156 24.085938 L 45.652344 24 L 45.515625 23.921875 L 45.375 23.847656 L 45.226563 23.78125 L 45.078125 23.722656 L 44.925781 23.671875 L 44.769531 23.625 L 44.609375 23.589844 L 44.449219 23.558594 L 44.285156 23.539063 L 44.117188 23.523438 L 43.941406 23.519531 L 3.175781 23.519531 L 0.269531 13.199219 L 20.894531 13.199219 L 21.183594 12.714844 L 21.652344 11.988281 L 22.144531 11.277344 L 22.65625 10.585938 L 23.191406 9.90625 L 23.746094 9.25 L 24.320313 8.609375 L 24.917969 7.988281 L 25.53125 7.386719 L 26.167969 6.804688 L 26.820313 6.242188 L 27.492188 5.703125 L 28.179688 5.183594 L 28.886719 4.683594 L 29.609375 4.210938 L 30.347656 3.757813 L 31.101563 3.328125 L 31.871094 2.925781 L 32.652344 2.542969 L 33.453125 2.1875 L 34.261719 1.859375 L 35.085938 1.554688 L 35.921875 1.277344 L 36.769531 1.027344 L 37.628906 0.804688 L 38.5 0.609375 L 39.382813 0.445313 L 40.273438 0.308594 L 41.171875 0.199219 L 42.082031 0.125 L 43 0.078125 L 43.921875 0.0625 L 44.847656 0.078125 L 45.765625 0.125 L 46.675781 0.199219 L 47.574219 0.308594 L 48.464844 0.445313 L 49.347656 0.609375 L 50.21875 0.804688 L 51.078125 1.027344 L 51.925781 1.277344 L 52.761719 1.554688 L 53.585938 1.859375 L 54.394531 2.1875 L 55.191406 2.542969 L 55.976563 2.925781 L 56.746094 3.328125 L 57.5 3.757813 L 58.238281 4.210938 L 58.960938 4.683594 L 59.664063 5.183594 L 60.351563 5.703125 L 61.023438 6.242188 L 61.675781 6.804688 L 62.3125 7.386719 L 62.929688 7.988281 L 63.523438 8.609375 L 64.101563 9.25 L 64.65625 9.90625 L 65.191406 10.585938 L 65.703125 11.277344 L 66.195313 11.988281 L 66.660156 12.714844 L 66.949219 13.199219 L 87.46875 13.199219 L 84.554688 23.519531 L 70.472656 23.519531 L 70.488281 23.636719 L 70.5 23.757813 L 70.515625 23.878906 L 70.550781 24.242188 L 70.5625 24.359375 L 70.574219 24.484375 L 70.585938 24.605469 L 70.601563 24.847656 L 70.613281 24.96875 L 70.621094 25.089844 L 70.628906 25.214844 L 70.632813 25.335938 L 70.640625 25.460938 L 70.648438 25.582031 L 70.652344 25.703125 L 70.65625 25.828125 L 70.660156 25.949219 L 70.664063 26.074219 L 70.667969 26.195313 L 70.671875 26.320313 L 70.671875 26.441406 L 70.675781 26.566406 L 70.675781 27.0625 L 70.671875 27.183594 L 70.671875 27.308594 L 70.667969 27.429688 L 70.664063 27.554688 L 70.660156 27.675781 L 70.65625 27.800781 L 70.648438 28.042969 L 70.640625 28.167969 L 70.632813 28.289063 L 70.628906 28.414063 L 70.613281 28.65625 L 70.601563 28.777344 L 70.59375 28.902344 L 70.585938 29.019531 L 70.574219 29.140625 L 70.5625 29.265625 L 70.550781 29.382813 L 70.539063 29.507813 L 70.527344 29.625 L 70.515625 29.746094 L 70.5 29.867188 L 70.488281 29.988281 L 70.472656 30.105469 L 82.703125 30.105469 L 79.792969 40.429688 L 66.949219 40.429688 L 66.660156 40.910156 L 66.191406 41.636719 L 65.699219 42.347656 L 65.1875 43.042969 L 64.652344 43.71875 L 64.097656 44.378906 L 63.523438 45.015625 L 62.925781 45.636719 L 62.308594 46.242188 L 61.675781 46.824219 L 61.023438 47.382813 L 60.351563 47.925781 L 59.664063 48.445313 L 58.957031 48.941406 L 58.234375 49.417969 L 57.496094 49.867188 L 56.742188 50.296875 L 55.972656 50.703125 L 55.191406 51.082031 L 54.394531 51.4375 L 53.582031 51.765625 L 52.761719 52.070313 L 51.921875 52.347656 L 51.074219 52.597656 L 50.214844 52.820313 L 49.34375 53.015625 L 48.464844 53.179688 L 47.574219 53.316406 L 46.671875 53.425781 L 45.765625 53.503906 L 44.847656 53.550781 L 43.921875 53.566406 L 42.996094 53.550781 L 42.082031 53.503906 L 41.171875 53.425781 L 40.273438 53.316406 L 39.382813 53.179688 L 38.5 53.015625 L 37.632813 52.820313 L 36.773438 52.597656 L 35.921875 52.347656 L 35.089844 52.070313 L 34.265625 51.765625 L 33.453125 51.4375 L 32.65625 51.082031 L 31.875 50.699219 L 31.105469 50.296875 L 30.351563 49.867188 L 29.613281 49.417969 L 28.890625 48.941406 L 28.183594 48.445313 L 27.496094 47.925781 L 26.824219 47.382813 L 26.171875 46.820313 L 25.539063 46.238281 L 24.921875 45.636719 L 24.328125 45.015625 L 23.75 44.375 L 23.195313 43.71875 L 22.660156 43.042969 L 22.148438 42.347656 L 21.65625 41.636719 L 21.191406 40.910156 L 20.902344 40.429688 L 7.945313 40.429688 L 5.035156 30.105469 L 43.941406 30.105469 L 44.117188 30.101563 L 44.285156 30.085938 L 44.449219 30.066406 L 44.609375 30.035156 L 44.769531 29.996094 L 44.925781 29.953125 L 45.078125 29.898438 L 45.226563 29.839844 L 45.375 29.773438 L 45.515625 29.699219 "/>
<path style=" stroke:none;fill-rule:evenodd;fill:rgb(100%,100%,100%);fill-opacity:1;" d="M 44.546875 15.199219 L 45.136719 15.246094 L 45.71875 15.320313 L 46.289063 15.421875 L 46.847656 15.554688 L 47.398438 15.710938 L 47.9375 15.894531 L 48.464844 16.101563 L 48.976563 16.335938 L 49.476563 16.59375 L 49.964844 16.871094 L 50.433594 17.175781 L 50.890625 17.5 L 51.328125 17.84375 L 51.75 18.210938 L 52.152344 18.597656 L 52.539063 19 L 52.902344 19.421875 L 53.246094 19.863281 L 53.570313 20.316406 L 53.871094 20.789063 L 54.152344 21.277344 L 54.40625 21.777344 L 54.640625 22.292969 L 54.847656 22.820313 L 55.03125 23.359375 L 55.1875 23.910156 L 55.316406 24.46875 L 55.417969 25.042969 L 55.492188 25.625 L 55.535156 26.214844 L 55.550781 26.8125 L 55.535156 27.410156 L 55.492188 28.003906 L 55.417969 28.582031 L 55.316406 29.15625 L 55.1875 29.714844 L 55.03125 30.265625 L 54.847656 30.804688 L 54.640625 31.332031 L 54.40625 31.847656 L 54.152344 32.347656 L 53.871094 32.835938 L 53.570313 33.308594 L 53.246094 33.761719 L 52.902344 34.203125 L 52.539063 34.625 L 52.152344 35.027344 L 51.75 35.414063 L 51.328125 35.78125 L 50.890625 36.125 L 50.433594 36.449219 L 49.964844 36.753906 L 49.476563 37.035156 L 48.976563 37.289063 L 48.464844 37.523438 L 47.9375 37.734375 L 47.398438 37.914063 L 46.847656 38.074219 L 46.289063 38.203125 L 45.71875 38.308594 L 45.136719 38.382813 L 44.546875 38.425781 L 43.929688 38.445313 L 29.050781 38.445313 L 32.585938 41.277344 L 32.890625 41.511719 L 33.199219 41.742188 L 33.511719 41.960938 L 33.832031 42.175781 L 34.15625 42.386719 L 34.484375 42.589844 L 35.15625 42.972656 L 35.5 43.152344 L 35.84375 43.328125 L 36.195313 43.496094 L 36.550781 43.65625 L 36.90625 43.808594 L 37.269531 43.953125 L 37.636719 44.089844 L 38.007813 44.222656 L 38.378906 44.34375 L 38.757813 44.457031 L 39.136719 44.566406 L 39.519531 44.664063 L 39.90625 44.753906 L 40.296875 44.839844 L 40.6875 44.914063 L 41.085938 44.976563 L 41.480469 45.035156 L 41.882813 45.085938 L 42.285156 45.125 L 42.691406 45.15625 L 43.101563 45.179688 L 43.511719 45.191406 L 43.933594 45.195313 L 44.867188 45.171875 L 45.800781 45.101563 L 46.71875 44.984375 L 47.625 44.824219 L 48.515625 44.617188 L 49.386719 44.371094 L 50.242188 44.082031 L 51.078125 43.753906 L 51.890625 43.382813 L 52.683594 42.976563 L 53.453125 42.535156 L 54.199219 42.054688 L 54.921875 41.542969 L 55.613281 41 L 56.28125 40.421875 L 56.917969 39.8125 L 57.527344 39.175781 L 58.105469 38.507813 L 58.652344 37.8125 L 59.164063 37.09375 L 59.640625 36.347656 L 60.082031 35.578125 L 60.488281 34.785156 L 60.859375 33.96875 L 61.1875 33.132813 L 61.476563 32.28125 L 61.722656 31.40625 L 61.929688 30.515625 L 62.089844 29.609375 L 62.207031 28.691406 L 62.277344 27.757813 L 62.304688 26.8125 L 62.277344 25.867188 L 62.207031 24.933594 L 62.089844 24.015625 L 61.929688 23.109375 L 61.722656 22.21875 L 61.476563 21.347656 L 61.1875 20.492188 L 60.859375 19.65625 L 60.488281 18.84375 L 60.082031 18.050781 L 59.640625 17.28125 L 59.164063 16.535156 L 58.652344 15.8125 L 58.105469 15.121094 L 57.527344 14.453125 L 56.917969 13.816406 L 56.28125 13.207031 L 55.613281 12.628906 L 54.921875 12.085938 L 54.199219 11.570313 L 53.453125 11.09375 L 52.683594 10.652344 L 51.890625 10.246094 L 51.078125 9.875 L 50.242188 9.546875 L 49.386719 9.257813 L 48.515625 9.011719 L 47.625 8.804688 L 46.71875 8.644531 L 45.800781 8.527344 L 44.867188 8.457031 L 43.933594 8.429688 L 43.511719 8.4375 L 43.101563 8.449219 L 42.691406 8.472656 L 42.285156 8.503906 L 41.882813 8.542969 L 41.480469 8.59375 L 41.085938 8.652344 L 40.6875 8.714844 L 40.296875 8.789063 L 39.90625 8.871094 L 39.519531 8.964844 L 39.136719 9.0625 L 38.757813 9.167969 L 38.378906 9.285156 L 38.007813 9.40625 L 37.636719 9.535156 L 37.269531 9.675781 L 36.90625 9.820313 L 36.550781 9.972656 L 36.195313 10.132813 L 35.84375 10.300781 L 35.5 10.472656 L 35.15625 10.65625 L 34.820313 10.84375 L 34.484375 11.039063 L 34.15625 11.242188 L 33.832031 11.449219 L 33.511719 11.664063 L 33.199219 11.886719 L 32.890625 12.113281 L 32.585938 12.347656 L 29.050781 15.183594 L 43.929688 15.183594 Z M 22.023438 38.445313 L 9.445313 38.445313 L 7.65625 32.089844 L 43.976563 32.089844 L 44.234375 32.082031 L 44.5 32.058594 L 44.761719 32.023438 L 45.019531 31.976563 L 45.273438 31.917969 L 45.523438 31.84375 L 45.765625 31.761719 L 46.007813 31.664063 L 46.238281 31.558594 L 46.464844 31.445313 L 46.683594 31.316406 L 46.898438 31.179688 L 47.105469 31.03125 L 47.300781 30.878906 L 47.492188 30.710938 L 47.675781 30.539063 L 47.847656 30.355469 L 48.015625 30.164063 L 48.167969 29.964844 L 48.316406 29.757813 L 48.453125 29.546875 L 48.582031 29.324219 L 48.695313 29.097656 L 48.800781 28.863281 L 48.894531 28.625 L 48.980469 28.378906 L 49.050781 28.128906 L 49.109375 27.875 L 49.15625 27.613281 L 49.1875 27.351563 L 49.207031 27.082031 L 49.214844 26.8125 L 49.207031 26.542969 L 49.1875 26.277344 L 49.15625 26.011719 L 49.109375 25.753906 L 49.050781 25.496094 L 48.980469 25.246094 L 48.898438 25 L 48.800781 24.761719 L 48.695313 24.527344 L 48.582031 24.300781 L 48.453125 24.078125 L 48.316406 23.867188 L 48.171875 23.660156 L 48.015625 23.460938 L 47.851563 23.269531 L 47.675781 23.085938 L 47.492188 22.910156 L 47.304688 22.746094 L 47.105469 22.589844 L 46.898438 22.445313 L 46.6875 22.304688 L 46.464844 22.179688 L 46.238281 22.0625 L 46.007813 21.957031 L 45.765625 21.859375 L 45.523438 21.777344 L 45.273438 21.707031 L 45.019531 21.644531 L 44.757813 21.597656 L 44.496094 21.5625 L 44.230469 21.542969 L 43.972656 21.535156 L 4.679688 21.535156 L 2.890625 15.183594 L 22.019531 15.183594 L 22.871094 13.761719 L 23.304688 13.089844 L 23.757813 12.433594 L 24.234375 11.789063 L 24.726563 11.164063 L 25.242188 10.550781 L 25.777344 9.960938 L 26.328125 9.382813 L 26.898438 8.828125 L 27.484375 8.289063 L 28.089844 7.769531 L 28.710938 7.265625 L 29.351563 6.785156 L 30.003906 6.324219 L 30.671875 5.886719 L 31.355469 5.46875 L 32.054688 5.070313 L 32.765625 4.695313 L 33.492188 4.34375 L 34.226563 4.015625 L 34.980469 3.710938 L 35.742188 3.429688 L 36.515625 3.171875 L 37.300781 2.941406 L 38.09375 2.734375 L 38.902344 2.554688 L 39.714844 2.402344 L 40.539063 2.273438 L 41.375 2.175781 L 42.214844 2.101563 L 43.066406 2.058594 L 43.921875 2.046875 L 44.78125 2.058594 L 45.628906 2.101563 L 46.472656 2.175781 L 47.304688 2.273438 L 48.128906 2.402344 L 48.945313 2.554688 L 49.75 2.734375 L 50.546875 2.941406 L 51.332031 3.171875 L 52.105469 3.429688 L 52.867188 3.710938 L 53.617188 4.015625 L 54.355469 4.34375 L 55.082031 4.695313 L 55.792969 5.070313 L 56.488281 5.464844 L 57.171875 5.886719 L 57.84375 6.324219 L 58.496094 6.785156 L 59.132813 7.265625 L 59.753906 7.765625 L 60.359375 8.289063 L 60.949219 8.828125 L 61.519531 9.382813 L 62.070313 9.960938 L 62.605469 10.550781 L 63.117188 11.164063 L 63.613281 11.789063 L 64.089844 12.433594 L 64.542969 13.089844 L 64.976563 13.765625 L 65.828125 15.183594 L 84.847656 15.183594 L 83.054688 21.535156 L 68.1875 21.535156 L 68.445313 23.316406 L 68.460938 23.429688 L 68.472656 23.539063 L 68.488281 23.648438 L 68.503906 23.761719 L 68.515625 23.871094 L 68.53125 23.984375 L 68.542969 24.09375 L 68.566406 24.320313 L 68.578125 24.429688 L 68.585938 24.542969 L 68.597656 24.65625 L 68.605469 24.769531 L 68.617188 24.882813 L 68.625 24.992188 L 68.648438 25.332031 L 68.652344 25.445313 L 68.660156 25.558594 L 68.667969 25.785156 L 68.675781 25.898438 L 68.679688 26.011719 L 68.679688 26.125 L 68.683594 26.242188 L 68.6875 26.355469 L 68.6875 26.46875 L 68.691406 26.585938 L 68.691406 27.042969 L 68.6875 27.15625 L 68.6875 27.269531 L 68.683594 27.386719 L 68.679688 27.5 L 68.679688 27.613281 L 68.675781 27.726563 L 68.667969 27.839844 L 68.660156 28.066406 L 68.652344 28.179688 L 68.648438 28.292969 L 68.617188 28.746094 L 68.605469 28.855469 L 68.597656 28.96875 L 68.585938 29.082031 L 68.578125 29.195313 L 68.566406 29.304688 L 68.542969 29.53125 L 68.53125 29.640625 L 68.515625 29.75 L 68.503906 29.863281 L 68.488281 29.972656 L 68.472656 30.085938 L 68.460938 30.195313 L 68.445313 30.308594 L 68.191406 32.089844 L 80.082031 32.089844 L 78.292969 38.445313 L 65.824219 38.445313 L 64.972656 39.863281 L 64.539063 40.535156 L 64.085938 41.195313 L 63.609375 41.835938 L 63.117188 42.464844 L 62.601563 43.074219 L 62.070313 43.667969 L 61.515625 44.242188 L 60.945313 44.800781 L 60.359375 45.339844 L 59.753906 45.859375 L 59.132813 46.359375 L 58.492188 46.839844 L 57.839844 47.300781 L 57.171875 47.742188 L 56.488281 48.160156 L 55.789063 48.554688 L 55.078125 48.929688 L 54.355469 49.28125 L 53.617188 49.613281 L 52.867188 49.917969 L 52.105469 50.199219 L 51.332031 50.453125 L 50.546875 50.683594 L 49.75 50.890625 L 48.945313 51.070313 L 48.128906 51.226563 L 47.304688 51.351563 L 46.472656 51.449219 L 45.628906 51.523438 L 44.78125 51.566406 L 43.921875 51.582031 L 43.066406 51.566406 L 42.214844 51.523438 L 41.375 51.449219 L 40.539063 51.351563 L 39.71875 51.226563 L 38.902344 51.070313 L 38.097656 50.890625 L 37.300781 50.683594 L 36.515625 50.453125 L 35.742188 50.195313 L 34.980469 49.917969 L 34.230469 49.609375 L 33.492188 49.28125 L 32.769531 48.929688 L 32.058594 48.554688 L 31.359375 48.160156 L 30.675781 47.742188 L 30.007813 47.300781 L 29.355469 46.839844 L 28.71875 46.359375 L 28.09375 45.859375 L 27.488281 45.335938 L 26.902344 44.800781 L 26.332031 44.242188 L 25.78125 43.664063 L 25.246094 43.074219 L 24.730469 42.464844 L 24.238281 41.835938 L 23.761719 41.195313 L 23.308594 40.535156 L 22.875 39.863281 L 22.023438 38.445313 "/>
<path style=" stroke:none;fill-rule:nonzero;fill:rgb(13.699341%,12.199402%,12.5%);fill-opacity:1;" d="M 115.335938 40.371094 L 121.472656 40.371094 L 121.472656 28.132813 L 127.605469 28.132813 L 127.605469 40.371094 L 133.707031 40.371094 L 133.707031 18.945313 C 133.707031 17.292969 133.117188 15.859375 131.90625 14.648438 C 130.695313 13.433594 129.261719 12.8125 127.605469 12.8125 L 121.472656 12.8125 C 119.820313 12.8125 118.351563 13.398438 117.136719 14.609375 C 115.925781 15.824219 115.335938 17.257813 115.335938 18.945313 Z M 121.472656 25.042969 L 121.472656 18.945313 C 121.472656 17.21875 122.867188 15.859375 124.523438 15.859375 C 126.246094 15.859375 127.605469 17.21875 127.605469 18.945313 L 127.605469 25.042969 L 121.472656 25.042969 "/>
<path style=" stroke:none;fill-rule:nonzero;fill:rgb(13.699341%,12.199402%,12.5%);fill-opacity:1;" d="M 148.480469 13.242188 L 148.480469 34.324219 C 148.480469 35.953125 147.121094 37.363281 145.394531 37.363281 L 142.34375 37.363281 L 142.34375 13.242188 L 136.210938 13.242188 L 136.210938 40.371094 L 144.144531 40.371094 C 147.011719 40.371094 149.472656 39.351563 151.492188 37.328125 C 153.550781 35.300781 154.578125 32.878906 154.578125 30.058594 L 154.578125 13.242188 L 148.480469 13.242188 "/>
<path style=" stroke:none;fill-rule:nonzero;fill:rgb(13.699341%,12.199402%,12.5%);fill-opacity:1;" d="M 121.117188 12.191406 L 125.964844 12.191406 L 130.089844 5.820313 L 125.242188 5.820313 L 121.117188 12.191406 "/>
<path style=" stroke:none;fill-rule:nonzero;fill:rgb(13.699341%,12.199402%,12.5%);fill-opacity:1;" d="M 100.945313 32.113281 L 100.964844 32.085938 L 100.980469 32.113281 L 100.980469 32.058594 L 106.667969 22.316406 L 106.667969 40.371094 L 112.804688 40.371094 L 112.804688 13.242188 L 109.75 13.242188 C 107.300781 13.242188 106.070313 16.019531 105.078125 17.738281 L 100.964844 24.855469 L 96.847656 17.738281 C 95.855469 16.019531 94.625 13.242188 92.175781 13.242188 L 89.121094 13.242188 L 89.121094 40.371094 L 95.257813 40.371094 L 95.257813 22.316406 L 100.945313 32.058594 L 100.945313 32.113281 "/>
<path style=" stroke:none;fill-rule:evenodd;fill:rgb(13.699341%,12.199402%,12.5%);fill-opacity:1;" d="M 156.617188 25.101563 L 162.875 25.101563 L 162.875 28.125 L 156.617188 28.125 L 156.617188 25.101563 "/>
<path style=" stroke:none;fill-rule:nonzero;fill:rgb(13.699341%,12.199402%,12.5%);fill-opacity:1;" d="M 198.621094 40.367188 L 204.746094 40.367188 L 204.746094 28.144531 L 210.871094 28.144531 L 210.871094 40.367188 L 216.964844 40.367188 L 216.964844 18.976563 C 216.964844 17.324219 216.375 15.894531 215.164063 14.683594 C 213.953125 13.472656 212.523438 12.847656 210.871094 12.847656 L 204.746094 12.847656 C 203.097656 12.847656 201.628906 13.4375 200.417969 14.648438 C 199.210938 15.855469 198.621094 17.289063 198.621094 18.976563 Z M 204.746094 25.066406 L 204.746094 18.976563 C 204.746094 17.25 206.140625 15.894531 207.792969 15.894531 C 209.515625 15.894531 210.871094 17.25 210.871094 18.976563 L 210.871094 25.066406 L 204.746094 25.066406 "/>
<path style=" stroke:none;fill-rule:nonzero;fill:rgb(13.699341%,12.199402%,12.5%);fill-opacity:1;" d="M 243.4375 40.371094 L 249.445313 40.371094 L 249.445313 16.226563 L 255.488281 16.226563 L 255.488281 13.222656 L 237.394531 13.222656 L 237.394531 16.226563 L 243.4375 16.226563 L 243.4375 40.371094 "/>
<path style=" stroke:none;fill-rule:nonzero;fill:rgb(13.699341%,12.199402%,12.5%);fill-opacity:1;" d="M 225.558594 25.273438 L 225.558594 16.226563 L 228.558594 16.226563 C 230.261719 16.226563 231.601563 17.566406 231.601563 19.269531 L 231.601563 22.269531 C 231.601563 23.898438 230.261719 25.273438 228.558594 25.273438 Z M 219.515625 40.371094 L 225.558594 40.371094 L 225.558594 28.3125 L 228.558594 28.3125 C 230.261719 28.3125 231.601563 29.691406 231.601563 31.316406 L 231.601563 40.371094 L 237.605469 40.371094 L 237.605469 29.691406 C 237.605469 27.988281 236.230469 26.648438 234.605469 26.648438 L 231.601563 26.648438 C 233.769531 26.648438 235.328125 26.035156 236.230469 24.804688 C 237.136719 23.539063 237.605469 22.234375 237.605469 20.894531 L 237.605469 19.269531 C 237.605469 17.640625 237.027344 16.226563 235.835938 15.035156 C 234.640625 13.839844 233.230469 13.222656 231.601563 13.222656 L 219.515625 13.222656 L 219.515625 40.371094 "/>
<path style=" stroke:none;fill-rule:nonzero;fill:rgb(13.699341%,12.199402%,12.5%);fill-opacity:1;" d="M 186.503906 40.371094 L 192.511719 40.371094 L 192.511719 16.226563 L 198.554688 16.226563 L 198.554688 13.222656 L 180.460938 13.222656 L 180.460938 16.226563 L 186.503906 16.226563 L 186.503906 40.371094 "/>
<path style=" stroke:none;fill-rule:nonzero;fill:rgb(13.699341%,12.199402%,12.5%);fill-opacity:1;" d="M 174.628906 40.371094 C 177.703125 40.382813 180.746094 37.511719 180.746094 34.144531 L 180.746094 32.945313 C 180.746094 31.378906 179.855469 28.972656 178.476563 27.855469 L 170.1875 21.152344 C 169.464844 20.566406 169.140625 19.757813 169.09375 18.988281 C 168.980469 17.195313 169.945313 15.933594 171.878906 16.019531 C 173.355469 16.085938 174.191406 16.960938 174.207031 18.988281 L 177.210938 18.988281 L 177.210938 18.996094 L 177.242188 18.988281 L 177.273438 18.988281 L 177.273438 18.996094 L 180.191406 18.996094 C 180.109375 15.417969 177.550781 12.867188 174.035156 12.867188 L 169.089844 12.867188 C 166.019531 12.863281 162.992188 15.351563 162.96875 18.714844 L 162.960938 19.75 C 162.949219 21.316406 163.980469 23.917969 165.480469 25.039063 L 165.515625 25.066406 C 168.246094 27.480469 170.722656 29.355469 173.527344 31.683594 C 174.242188 32.277344 174.574219 33.082031 174.621094 33.847656 C 174.734375 35.644531 173.402344 36.796875 171.761719 36.816406 C 169.789063 36.839844 169.082031 35.976563 168.46875 33.847656 L 165.464844 33.847656 L 165.464844 33.84375 L 165.449219 33.847656 L 165.402344 33.847656 L 165.402344 33.84375 L 162.484375 33.84375 C 162.5625 37.417969 165.117188 40.335938 168.640625 40.347656 L 174.628906 40.371094 "/>
</g>
</svg>
