<?xml version="1.0" encoding="UTF-8"?>
<svg version="1.1" viewBox="0 0 1020 356" xml:space="preserve" xmlns="http://www.w3.org/2000/svg">
<title>Österreichische Bundesbahnen logo</title>
 <g transform="matrix(1,0,0,-1,0,356)">
	   
  <path d="m814.3 152.4h97.38c13.36 0 40.57-1.847 40.57-39.73 0-46.2-32.46-47.12-53.94-47.12h-84zm0 134.5h84.95c24.82 0 44.39-9.239 44.39-38.35 0-26.79-17.65-38.35-48.2-38.35h-81.14zm-71.59-279.1h157c21.95 0 60.62 3.23 84.48 23.11 31.02 25.86 36.27 53.58 36.27 71.14 0 40.2-21 69.77-41.52 85.02 25.29 20.32 32.92 48.97 32.92 69.3 0 13.86-6.68 88.25-125.5 88.25h-143.7l7e-3 -336.8" style="fill:#e2002a"/>
 
  <path d="m483.6 152.4h97.36c13.38 0 40.57-1.847 40.57-39.73 8e-3 -46.2-32.45-47.12-53.93-47.12h-84zm0 134.5h84.96c24.82 0 44.39-9.239 44.39-38.35 0-26.79-17.66-38.35-48.2-38.35h-81.14zm-71.59-279.1h157c21.95 0 60.61 3.23 84.48 23.11 31.02 25.86 36.27 53.58 36.27 71.14 0 40.2-21 69.77-41.52 85.02 25.3 20.32 32.92 48.97 32.92 69.3 0 13.86-6.675 88.25-125.5 88.25h-143.7v-336.8" style="fill:#ed1834"/>

  <path d="m254.4 344.4v0.218l-123.6-134.6h82.85l123.2 134.3h-82.46" style="fill:#ed1834"/>

  <path d="m313.6 292.4-47.77-52.1c12.95-18.14 20.04-39.74 20.04-62.47 0-28.86-11.23-55.99-31.64-76.4-20.41-20.41-47.54-31.66-76.39-31.66-28.86 0-55.99 11.25-76.4 31.66-20.41 20.41-31.65 47.54-31.65 76.4 0 58.92 47.44 107 106.1 108l56.15 61.23c-17.32 5.547-35.53 8.61-54.24 8.61-98.05 0-177.8-79.77-177.8-177.8 0-47.51 18.5-92.16 52.08-125.7 33.59-33.59 78.25-52.09 125.7-52.09 47.5 0 92.15 18.5 125.7 52.09 33.59 33.58 52.09 78.23 52.09 125.7 0 42.44-14.93 82.54-42.05 114.6" style="fill:#ed1834"/>

 </g>
</svg>
