<?xml version="1.0" encoding="utf-8"?>
<!-- Generator: Adobe Illustrator 25.4.1, SVG Export Plug-In . SVG Version: 6.00 Build 0)  -->
<svg version="1.1" id="Layer_1" xmlns="http://www.w3.org/2000/svg" xmlns:xlink="http://www.w3.org/1999/xlink" x="0px" y="0px"
	 viewBox="0 0 714 144" style="enable-background:new 0 0 714 144;" xml:space="preserve">
<style type="text/css">
	.st0{fill:#ED1C24;}
	.st1{fill:#0869B6;}
	
		.st2{clip-path:url(#SVGID_00000147941916877877367660000009878162271582643638_);fill:url(#SVGID_00000065790449511044085290000013686597980555123624_);}
	
		.st3{clip-path:url(#SVGID_00000025422673368436560260000010435293862860113039_);fill:url(#SVGID_00000009575432461955954470000006401205081431261339_);}
</style>
<g>
	<path class="st0" d="M53.8,105.3l105.4-65.7c6.1-3.8,15.6-7,19.8-7.6s9.5-0.8,9.5-0.8h0h76.1l47.8-29.8H152.9
		c-10.4,0-20.5,2.9-29.3,8.4L18.2,75.5C-4.1,89.4-6.3,121,13.8,137.8c3.8,3.2,8.6,4.9,13.5,4.9h8.6
		C34.2,128.6,40.3,113.7,53.8,105.3"/>
	<path class="st1" d="M362.1,32.7c0-18.3,13.3-32.7,31.2-32.7c12.1,0,19.6,5.6,24.9,13.3l-12,9.9c-3.4-4.5-7.4-7.3-13-7.3
		c-8.3,0-14.1,7.5-14.1,16.8c0,9.4,5.8,16.8,14.1,16.8c6.2,0,9.8-3.1,13.4-7.6l12.4,9.4c-5.6,8.2-13.1,14.2-26.2,14.2
		C375.7,65.5,362.1,51.7,362.1,32.7"/>
	<path class="st1" d="M425.9,1.3h25.4c15,0,24.6,8.2,24.6,22.3c0,14.8-10.8,22.7-25.5,22.7h-8.1v18h-16.4V1.3z M450.2,32.6
		c5.8,0,9.4-3.2,9.4-8.4c0-5.4-3.6-8.3-9.5-8.3h-7.7v16.6H450.2z"/>
	<path class="st1" d="M482.9,1.3h47.7v14.8h-31.2v7.3h11.4c13.7,0,23.8,6.7,23.8,20.2c0,13-9,20.6-22.9,20.6h-28.7V1.3z M510.4,49.6
		c4.9,0,7.8-2.3,7.8-6.7c0-3.9-2.9-6.4-7.7-6.4h-11.1v13H510.4z"/>
	<polygon class="st1" points="542.2,1.3 558.5,1.3 558.5,36.7 581.4,1.3 596.7,1.3 596.7,64.2 580.5,64.2 580.5,28.8 557.5,64.2 
		542.2,64.2 	"/>
	<path class="st1" d="M602.3,54.7l10.6-10.6c2.9,3.7,5.6,5.8,9.2,5.8c4.1,0,6.8-3,6.8-8.8V1.3h16.3v39.9c0,7.9-1.9,13.5-5.8,17.7
		c-3.9,4.1-9.5,6.4-16.3,6.4C612.8,65.3,606.5,60.7,602.3,54.7"/>
	<path class="st1" d="M672.9,0.8h15.8L714,64.2h-17.6L692.1,53h-22.9L665,64.2h-17.3L672.9,0.8z M687.3,39.4l-6.6-17.9L674,39.4
		H687.3z"/>
	<path class="st1" d="M450.7,79.8h30.4c7.5,0,12.7,2,16.2,5.7c2.4,2.5,3.8,5.8,3.8,10.3c0,7.3-3.9,11.6-9.1,14
		c7.2,2.5,11.8,6.8,11.8,15.6c0,10.8-8.3,17.4-22.4,17.4h-30.6V79.8z M477,104.9c5,0,7.8-1.8,7.8-5.7c0-3.4-2.5-5.4-7.5-5.4h-10.7
		v11.1H477z M479.4,128.7c5,0,7.9-2.1,7.9-5.9c0-3.4-2.5-5.7-8-5.7h-12.5v11.6H479.4z"/>
	<path class="st1" d="M509.2,111.3c0-18.1,13.7-32.7,32-32.7S573,93,573,111.3c0,18.1-13.7,32.7-32,32.7
		C522.7,144,509.2,129.5,509.2,111.3 M556.2,111.3c0-9.1-6.2-17-15.2-17c-9,0-15,7.7-15,17c0,9.1,6.2,17,15.2,17
		C550.2,128.3,556.2,120.5,556.2,111.3"/>
	<path class="st1" d="M574.7,133.4l8.6-11.6c4.2,4.5,9.7,7.5,16.7,7.5c6.1,0,9.1-2.6,9.1-6.2c0-3.4-3-5.6-9.5-5.6h-6.2v-13h6
		c5.9,0,8.4-2.4,8.4-5.8c0-3.2-2.9-5.5-7.5-5.5c-5.1,0-11.5,2.6-15.2,6.2l-8.1-10.3c5.8-6,13.5-10.7,24.8-10.7
		c13.2,0,22.2,7.2,22.2,17c0,7.5-3.6,11.7-8.9,14.3c6,2.2,10.4,6.7,10.4,14.6c0,11.2-9,19.5-23.5,19.5
		C588.3,143.9,581.3,139.6,574.7,133.4"/>
</g>
<g>
	<defs>
		<path id="SVGID_1_" d="M95.2,112.5l-17.9,11.2c-7,4.4-10.7,11.6-11,19H366l48.4-30.2H95.2z"/>
	</defs>
	<clipPath id="SVGID_00000014620981895134680600000017091803660280888459_">
		<use xlink:href="#SVGID_1_"  style="overflow:visible;"/>
	</clipPath>
	
		<linearGradient id="SVGID_00000142889536073134874480000014823786370718685316_" gradientUnits="userSpaceOnUse" x1="-183.0003" y1="612.0043" x2="-182.0003" y2="612.0043" gradientTransform="matrix(-1134.7289 6.2092 6.2092 1134.7289 -210891.5625 -693196.75)">
		<stop  offset="0" style="stop-color:#FFFFFF"/>
		<stop  offset="9.411301e-02" style="stop-color:#F5F5F5"/>
		<stop  offset="0.2547" style="stop-color:#DADADA"/>
		<stop  offset="0.4624" style="stop-color:#AFAEAE"/>
		<stop  offset="0.709" style="stop-color:#737071"/>
		<stop  offset="0.9859" style="stop-color:#272324"/>
		<stop  offset="1" style="stop-color:#231F20"/>
	</linearGradient>
	
		<polygon style="clip-path:url(#SVGID_00000014620981895134680600000017091803660280888459_);fill:url(#SVGID_00000142889536073134874480000014823786370718685316_);" points="
		414.6,142.7 66.3,144.6 66.2,112.5 414.4,110.6 	"/>
</g>
<g>
	<defs>
		<path id="SVGID_00000131332336160722888340000007930737201009936286_" d="M193.4,57c-4.8,0-9.5,1.1-13.8,3.1
			c-1.2,0.6-43.9,27.1-43.9,27.1h159L343,57l-149.3,0C193.6,57,193.5,57,193.4,57"/>
	</defs>
	<clipPath id="SVGID_00000167376394424269916390000004132348595480330420_">
		<use xlink:href="#SVGID_00000131332336160722888340000007930737201009936286_"  style="overflow:visible;"/>
	</clipPath>
	
		<linearGradient id="SVGID_00000016040950613620951900000005633535448788972697_" gradientUnits="userSpaceOnUse" x1="-183.0003" y1="612.0042" x2="-182.0003" y2="612.0042" gradientTransform="matrix(-202.5139 0 0 202.5139 -36720.543 -123867.3203)">
		<stop  offset="0" style="stop-color:#0869B6"/>
		<stop  offset="0.2003" style="stop-color:#0A63AC"/>
		<stop  offset="0.5417" style="stop-color:#0F5491"/>
		<stop  offset="0.9805" style="stop-color:#173A65"/>
		<stop  offset="1" style="stop-color:#173963"/>
	</linearGradient>
	
		<rect x="135.7" y="57" style="clip-path:url(#SVGID_00000167376394424269916390000004132348595480330420_);fill:url(#SVGID_00000016040950613620951900000005633535448788972697_);" width="207.4" height="30.2"/>
</g>
</svg>
