<svg xmlns="http://www.w3.org/2000/svg" xmlns:xlink="http://www.w3.org/1999/xlink" id="svg" version="1.1" viewBox="3.5 22.26 387.2 70.09"><g id="svgg"><path id="path0" d="M11.698 34.966 C 11.577 35.049,11.277 35.080,11.031 35.036 L 10.583 34.956 11.083 35.510 C 11.813 36.318,12.162 36.610,13.000 37.112 C 13.412 37.359,13.849 37.660,13.970 37.781 C 14.091 37.901,14.291 38.000,14.415 38.000 C 14.538 38.000,14.664 38.056,14.694 38.125 C 14.725 38.194,14.949 38.362,15.192 38.500 C 16.664 39.333,19.961 41.364,21.188 42.194 C 21.979 42.729,22.699 43.167,22.788 43.167 C 22.877 43.167,23.430 43.527,24.017 43.966 C 24.603 44.406,25.421 44.972,25.833 45.223 C 26.246 45.475,27.181 46.090,27.912 46.590 C 28.643 47.091,29.304 47.500,29.381 47.500 C 29.498 47.500,30.638 48.294,31.259 48.807 C 31.356 48.887,31.764 49.132,32.166 49.351 C 32.568 49.571,33.033 49.869,33.201 50.015 C 33.368 50.161,33.710 50.386,33.960 50.515 C 34.210 50.644,34.995 51.144,35.704 51.626 C 37.339 52.737,40.669 54.833,40.798 54.833 C 40.851 54.833,41.050 54.975,41.239 55.147 C 41.792 55.652,46.286 58.667,46.485 58.667 C 46.585 58.667,46.667 58.724,46.667 58.794 C 46.667 58.927,46.699 58.946,48.272 59.749 C 48.810 60.024,49.325 60.335,49.417 60.440 C 49.631 60.687,51.439 61.907,52.833 62.745 C 53.429 63.103,53.977 63.494,54.050 63.614 C 54.123 63.735,54.286 63.833,54.411 63.833 C 54.536 63.833,54.664 63.897,54.694 63.974 C 54.725 64.052,54.948 64.220,55.190 64.349 C 55.432 64.478,56.407 65.055,57.357 65.632 C 58.306 66.209,59.233 66.771,59.417 66.882 C 59.600 66.993,59.788 67.121,59.833 67.167 C 60.010 67.343,60.991 68.000,61.078 68.000 C 61.229 68.000,62.912 69.208,62.972 69.360 C 63.003 69.437,63.101 69.500,63.191 69.500 C 63.280 69.500,63.697 69.762,64.117 70.083 C 64.537 70.404,64.950 70.667,65.034 70.667 C 65.118 70.667,65.516 70.910,65.918 71.208 C 66.319 71.506,67.369 72.200,68.250 72.750 C 69.573 73.575,71.686 75.034,72.417 75.626 C 72.508 75.700,72.883 75.942,73.250 76.163 C 73.617 76.385,73.954 76.609,74.000 76.661 C 74.046 76.714,74.271 76.852,74.500 76.968 C 75.185 77.316,76.359 78.065,76.833 78.456 C 77.095 78.673,77.865 79.157,80.500 80.763 C 81.371 81.293,82.439 81.976,82.873 82.280 C 83.308 82.585,83.739 82.833,83.832 82.833 C 83.924 82.833,84.000 82.910,84.000 83.004 C 84.000 83.098,84.169 83.241,84.375 83.321 C 84.581 83.401,85.012 83.647,85.333 83.866 C 85.654 84.086,86.029 84.322,86.167 84.390 C 86.596 84.602,87.028 84.878,89.011 86.208 C 90.070 86.919,91.026 87.500,91.135 87.500 C 91.244 87.500,91.333 87.568,91.333 87.651 C 91.333 87.734,91.990 88.238,92.792 88.770 C 93.594 89.302,94.792 90.140,95.456 90.632 C 96.119 91.123,96.922 91.597,97.240 91.685 C 97.646 91.797,97.790 91.918,97.725 92.089 C 97.645 92.298,98.047 92.333,100.492 92.333 C 102.215 92.333,103.315 92.272,103.257 92.178 C 103.050 91.843,103.712 91.799,108.881 91.806 C 112.059 91.810,114.140 91.753,113.999 91.666 C 113.492 91.353,114.117 91.252,116.638 91.242 C 119.750 91.229,121.033 91.312,120.907 91.516 C 120.856 91.599,120.893 91.667,120.990 91.667 C 121.087 91.667,121.167 91.592,121.167 91.500 C 121.167 91.397,122.130 91.330,123.708 91.326 C 125.999 91.319,126.201 91.296,125.750 91.089 C 125.475 90.963,125.362 90.850,125.500 90.838 C 127.781 90.633,128.333 90.646,128.333 90.902 C 128.333 91.047,128.246 91.167,128.139 91.167 C 128.032 91.167,127.990 91.212,128.045 91.267 C 128.101 91.323,128.387 91.248,128.682 91.101 C 128.977 90.954,129.450 90.832,129.734 90.831 C 130.018 90.829,130.362 90.756,130.500 90.667 C 130.682 90.549,130.690 90.504,130.532 90.503 C 130.412 90.501,130.360 90.425,130.417 90.333 C 130.480 90.230,131.918 90.167,134.177 90.167 C 137.013 90.167,137.824 90.120,137.792 89.958 C 137.759 89.795,139.216 89.741,144.542 89.706 C 150.425 89.669,151.333 89.630,151.333 89.415 C 151.333 89.161,151.317 89.162,156.833 89.102 C 159.918 89.068,161.376 89.164,161.190 89.389 C 161.051 89.557,161.064 89.611,161.245 89.611 C 161.378 89.611,161.524 89.511,161.571 89.389 C 161.633 89.226,162.070 89.166,163.203 89.164 C 164.131 89.163,164.660 89.104,164.524 89.018 C 164.165 88.791,164.475 88.710,166.193 88.582 C 168.406 88.418,170.688 88.617,170.251 88.937 C 170.078 89.063,170.023 89.167,170.129 89.167 C 170.235 89.167,170.568 88.923,170.869 88.626 L 171.417 88.086 174.625 88.025 C 177.735 87.966,178.083 88.017,177.633 88.467 C 177.523 88.577,177.491 88.667,177.562 88.667 C 177.633 88.667,177.803 88.554,177.940 88.417 C 178.098 88.259,178.540 88.160,179.137 88.147 C 179.657 88.137,179.933 88.092,179.750 88.048 C 177.977 87.621,180.143 87.454,186.536 87.523 C 189.587 87.556,191.802 87.560,191.458 87.532 C 191.083 87.501,190.833 87.393,190.833 87.263 C 190.833 87.029,197.302 86.532,197.995 86.714 C 198.189 86.764,199.039 86.732,199.882 86.641 C 200.726 86.550,203.329 86.410,205.667 86.329 C 209.480 86.197,211.381 86.072,218.000 85.514 C 219.054 85.425,222.068 85.348,224.697 85.343 C 227.607 85.337,229.658 85.265,229.938 85.158 C 230.191 85.062,231.377 84.914,232.574 84.828 C 233.771 84.742,235.125 84.598,235.583 84.508 C 236.379 84.351,239.478 84.200,249.417 83.834 C 251.892 83.743,254.217 83.587,254.583 83.489 C 254.967 83.386,257.760 83.275,261.167 83.228 C 264.556 83.180,267.272 83.073,267.525 82.976 C 267.785 82.876,270.161 82.795,273.295 82.778 C 277.223 82.757,278.604 82.700,278.550 82.559 C 278.420 82.217,283.415 81.839,289.583 81.725 C 292.532 81.670,293.080 81.615,294.333 81.248 C 295.810 80.816,298.051 80.466,298.423 80.609 C 298.542 80.654,298.850 80.581,299.108 80.446 L 299.577 80.200 298.664 80.104 C 298.161 80.052,296.775 79.966,295.583 79.913 C 293.174 79.807,292.500 79.714,292.500 79.487 C 292.500 79.402,292.669 79.317,292.875 79.297 C 294.127 79.175,285.771 79.105,282.667 79.212 C 277.837 79.377,271.192 79.303,271.035 79.083 C 270.838 78.806,270.531 78.783,267.433 78.815 C 263.950 78.851,262.933 78.748,263.077 78.372 C 263.164 78.146,262.669 78.134,258.629 78.258 C 250.710 78.502,244.311 78.453,242.500 78.135 C 241.629 77.981,240.185 77.806,239.292 77.746 C 237.533 77.626,236.950 77.238,238.375 77.135 C 238.765 77.106,234.621 77.111,229.167 77.146 L 219.250 77.208 219.577 76.844 L 219.904 76.479 212.618 76.599 C 205.494 76.716,205.333 76.711,205.333 76.397 C 205.333 76.084,205.123 76.076,197.292 76.079 C 187.244 76.084,182.040 75.777,182.396 75.200 C 182.436 75.136,179.352 75.073,175.543 75.060 C 169.365 75.039,168.601 75.008,168.467 74.768 C 168.331 74.526,167.290 74.500,157.752 74.500 C 148.210 74.500,146.407 74.433,147.207 74.111 C 147.322 74.064,143.329 74.016,138.333 74.003 C 130.291 73.982,129.146 73.947,128.347 73.696 C 127.325 73.376,127.085 73.058,127.782 72.949 C 128.039 72.909,127.837 72.905,127.333 72.941 C 125.949 73.039,115.294 72.999,114.946 72.894 C 114.765 72.840,114.680 72.705,114.735 72.561 C 114.815 72.354,114.497 72.332,112.539 72.407 C 100.845 72.860,97.587 72.688,95.667 71.520 C 94.831 71.011,90.230 68.805,88.500 68.084 C 87.904 67.835,87.342 67.575,87.250 67.506 C 87.158 67.436,86.875 67.330,86.620 67.269 C 86.366 67.208,85.766 66.978,85.287 66.757 C 84.808 66.536,83.404 65.931,82.167 65.411 C 80.929 64.891,79.845 64.399,79.758 64.316 C 79.671 64.234,79.504 64.167,79.387 64.167 C 79.269 64.167,78.553 63.877,77.795 63.523 C 77.037 63.168,75.854 62.635,75.167 62.337 C 74.479 62.039,73.354 61.533,72.667 61.212 C 71.979 60.892,71.117 60.495,70.750 60.330 C 70.383 60.164,69.633 59.827,69.083 59.579 C 68.533 59.330,67.821 59.033,67.500 58.918 C 67.179 58.803,66.579 58.555,66.167 58.366 C 65.754 58.177,64.667 57.708,63.750 57.324 C 62.833 56.939,61.183 56.195,60.083 55.670 C 56.500 53.961,55.928 53.703,55.112 53.431 C 54.670 53.283,54.032 53.024,53.696 52.855 C 51.939 51.975,50.903 51.491,50.781 51.495 C 50.707 51.498,50.257 51.318,49.781 51.095 C 49.306 50.871,47.896 50.278,46.649 49.776 C 45.402 49.274,44.000 48.670,43.534 48.434 C 43.068 48.198,42.138 47.785,41.468 47.517 C 40.386 47.085,35.998 45.050,33.250 43.707 C 32.242 43.214,31.115 42.759,27.750 41.487 C 26.742 41.106,25.054 40.380,24.000 39.875 C 22.946 39.369,21.521 38.695,20.833 38.376 C 20.146 38.057,18.827 37.433,17.902 36.989 C 14.358 35.285,13.577 34.967,12.757 34.893 C 12.295 34.851,11.818 34.884,11.698 34.966 M246.455 77.120 C 246.750 77.157,247.275 77.158,247.621 77.122 C 247.967 77.086,247.725 77.055,247.083 77.055 C 246.442 77.054,246.159 77.083,246.455 77.120 M282.628 78.787 C 282.928 78.825,283.378 78.824,283.628 78.786 C 283.878 78.748,283.633 78.717,283.083 78.718 C 282.533 78.719,282.328 78.750,282.628 78.787 M132.542 90.782 C 132.702 90.823,132.965 90.823,133.125 90.782 C 133.285 90.740,133.154 90.705,132.833 90.705 C 132.512 90.705,132.381 90.740,132.542 90.782 M134.208 90.782 C 134.369 90.823,134.631 90.823,134.792 90.782 C 134.952 90.740,134.821 90.705,134.500 90.705 C 134.179 90.705,134.048 90.740,134.208 90.782 M126.542 91.282 C 126.702 91.323,126.965 91.323,127.125 91.282 C 127.285 91.240,127.154 91.205,126.833 91.205 C 126.513 91.205,126.381 91.240,126.542 91.282 " stroke="none" fill="#c62537" fill-rule="evenodd"/><path id="path1" d="M291.814 22.563 C 291.530 22.711,290.516 22.821,288.908 22.877 C 287.108 22.940,286.391 23.025,286.261 23.190 C 286.122 23.368,285.241 23.424,282.186 23.453 C 278.954 23.483,278.240 23.533,278.006 23.745 C 277.761 23.966,276.718 24.000,270.130 24.000 C 263.533 24.000,262.523 24.033,262.440 24.250 C 262.358 24.462,261.775 24.500,258.609 24.500 C 255.492 24.500,254.840 24.541,254.667 24.750 C 254.492 24.960,253.799 25.000,250.345 25.000 C 246.985 25.000,246.171 25.045,245.907 25.245 C 245.647 25.441,244.906 25.490,242.162 25.495 C 239.460 25.499,238.669 25.550,238.398 25.740 C 238.117 25.937,236.860 25.989,231.386 26.032 C 226.707 26.068,224.648 26.140,224.484 26.274 C 224.335 26.394,223.101 26.492,221.099 26.541 C 218.426 26.607,217.917 26.660,217.747 26.893 C 217.571 27.134,217.065 27.167,213.532 27.167 C 210.254 27.167,209.492 27.210,209.383 27.401 C 209.276 27.590,208.461 27.647,205.180 27.693 C 202.114 27.736,201.094 27.801,201.042 27.958 C 200.988 28.120,199.465 28.168,194.194 28.172 C 188.499 28.176,187.365 28.216,187.093 28.422 C 186.832 28.619,186.084 28.667,183.230 28.667 C 180.306 28.667,179.647 28.710,179.440 28.917 C 179.241 29.116,178.697 29.167,176.745 29.167 C 174.961 29.167,174.158 29.232,173.775 29.408 C 173.358 29.601,172.125 29.660,167.778 29.700 C 162.793 29.746,162.287 29.776,162.093 30.042 C 161.897 30.310,161.418 30.333,156.222 30.333 C 151.505 30.333,150.510 30.374,150.240 30.578 C 149.975 30.779,149.107 30.824,145.395 30.828 C 141.584 30.833,140.842 30.873,140.667 31.083 C 140.496 31.288,139.926 31.333,137.491 31.333 C 135.076 31.333,134.477 31.380,134.274 31.583 C 134.063 31.794,133.247 31.833,129.030 31.833 C 124.744 31.833,124.022 31.869,123.940 32.083 C 123.857 32.298,123.152 32.333,119.000 32.333 C 115.071 32.333,114.043 32.381,113.558 32.583 C 113.064 32.790,111.919 32.833,106.988 32.833 C 101.941 32.833,100.996 32.871,100.881 33.075 C 100.773 33.269,100.096 33.335,97.498 33.407 C 94.867 33.479,94.215 33.544,94.065 33.748 C 93.915 33.952,93.434 34.000,91.535 34.000 C 89.673 34.000,89.139 34.051,88.940 34.250 C 88.743 34.448,88.216 34.500,86.423 34.500 C 84.562 34.500,84.139 34.545,84.060 34.750 C 83.984 34.947,83.638 35.000,82.411 35.000 C 81.177 35.000,80.799 35.058,80.577 35.280 C 80.085 35.772,80.671 36.000,82.431 36.000 C 83.640 36.000,83.985 36.053,84.060 36.250 C 84.143 36.465,84.885 36.500,89.334 36.500 C 93.815 36.500,94.567 36.536,94.922 36.769 C 95.282 37.005,96.466 37.047,104.791 37.122 C 111.091 37.179,114.324 37.267,114.471 37.385 C 114.617 37.502,117.364 37.587,122.554 37.635 C 128.123 37.687,130.451 37.763,130.535 37.896 C 130.619 38.027,132.411 38.099,136.524 38.137 C 141.278 38.180,142.459 38.235,142.734 38.428 C 143.010 38.622,144.002 38.667,148.018 38.667 C 152.079 38.667,153.047 38.711,153.439 38.916 C 153.847 39.128,155.378 39.165,163.970 39.166 C 172.684 39.167,174.057 39.200,174.274 39.417 C 174.488 39.630,175.482 39.667,181.145 39.667 C 186.220 39.667,187.815 39.715,187.975 39.875 C 188.133 40.033,189.766 40.095,194.716 40.132 C 200.646 40.177,201.270 40.207,201.465 40.466 C 201.656 40.718,202.149 40.756,205.799 40.800 C 208.886 40.838,210.044 40.909,210.425 41.084 C 210.841 41.275,212.657 41.319,220.399 41.328 C 227.590 41.336,229.951 41.388,230.224 41.544 C 230.488 41.695,232.272 41.763,236.917 41.798 C 242.045 41.837,243.350 41.893,243.775 42.090 C 244.206 42.290,245.408 42.333,250.466 42.333 C 255.792 42.333,256.644 42.367,256.727 42.583 C 256.809 42.796,257.431 42.833,260.917 42.833 C 264.402 42.833,265.025 42.871,265.106 43.083 C 265.190 43.301,266.345 43.333,274.107 43.333 C 282.054 43.333,283.056 43.363,283.426 43.605 C 283.779 43.836,284.622 43.889,289.124 43.963 C 293.248 44.031,294.456 44.099,294.632 44.275 C 294.765 44.408,295.221 44.500,295.744 44.500 C 296.379 44.500,296.658 44.571,296.727 44.750 C 296.780 44.887,297.013 45.000,297.245 45.000 C 297.509 45.000,297.667 45.094,297.667 45.250 C 297.667 45.415,297.831 45.500,298.149 45.500 C 298.424 45.500,298.672 45.607,298.727 45.750 C 298.793 45.921,299.061 46.000,299.578 46.000 C 300.138 46.000,300.333 46.065,300.333 46.250 C 300.333 46.414,300.498 46.500,300.814 46.500 C 301.154 46.500,301.320 46.597,301.382 46.833 C 301.435 47.037,301.609 47.167,301.830 47.167 C 302.028 47.167,302.303 47.279,302.440 47.417 C 302.578 47.554,302.873 47.667,303.095 47.667 C 303.344 47.667,303.500 47.763,303.500 47.917 C 303.500 48.081,303.665 48.167,303.982 48.167 C 304.257 48.167,304.506 48.274,304.560 48.417 C 304.615 48.560,304.864 48.667,305.144 48.667 C 305.423 48.667,305.672 48.773,305.727 48.917 C 305.790 49.082,306.051 49.167,306.495 49.167 C 306.981 49.167,307.167 49.236,307.167 49.417 C 307.167 49.583,307.333 49.667,307.667 49.667 C 308.000 49.667,308.167 49.750,308.167 49.917 C 308.167 50.091,308.343 50.167,308.750 50.167 C 309.155 50.167,309.333 50.242,309.333 50.415 C 309.333 50.576,309.571 50.701,310.014 50.772 C 310.389 50.832,310.734 50.982,310.782 51.107 C 310.830 51.231,311.078 51.333,311.333 51.333 C 311.592 51.333,311.840 51.444,311.894 51.583 C 311.950 51.729,312.199 51.833,312.495 51.833 C 312.833 51.833,313.000 51.916,313.000 52.083 C 313.000 52.248,313.164 52.333,313.480 52.333 C 313.743 52.333,314.053 52.446,314.167 52.583 C 314.281 52.721,314.627 52.833,314.937 52.833 C 315.326 52.833,315.500 52.910,315.500 53.083 C 315.500 53.256,315.674 53.333,316.064 53.333 C 316.488 53.333,316.649 53.416,316.715 53.667 C 316.768 53.871,316.942 54.000,317.163 54.000 C 317.361 54.000,317.636 54.112,317.774 54.250 C 317.911 54.387,318.174 54.500,318.357 54.500 C 318.540 54.500,318.803 54.612,318.940 54.750 C 319.078 54.887,319.448 55.000,319.762 55.000 C 320.159 55.000,320.333 55.076,320.333 55.250 C 320.333 55.415,320.498 55.500,320.816 55.500 C 321.090 55.500,321.339 55.607,321.394 55.750 C 321.446 55.887,321.682 56.000,321.917 56.000 C 322.152 56.000,322.387 56.112,322.440 56.250 C 322.494 56.393,322.743 56.500,323.018 56.500 C 323.335 56.500,323.500 56.585,323.500 56.750 C 323.500 56.887,323.595 57.000,323.711 57.000 C 323.827 57.000,324.201 57.150,324.544 57.333 C 324.886 57.517,325.391 57.667,325.666 57.667 C 325.978 57.667,326.151 57.745,326.125 57.875 C 326.100 58.000,326.301 58.104,326.625 58.136 C 326.961 58.168,327.167 58.279,327.167 58.427 C 327.167 58.580,327.341 58.667,327.649 58.667 C 327.924 58.667,328.172 58.774,328.227 58.917 C 328.290 59.082,328.552 59.167,329.000 59.167 C 329.448 59.167,329.710 59.251,329.773 59.417 C 329.828 59.559,330.076 59.667,330.351 59.667 C 330.669 59.667,330.833 59.752,330.833 59.917 C 330.833 60.081,330.998 60.167,331.316 60.167 C 331.581 60.167,331.837 60.270,331.885 60.395 C 331.934 60.521,332.185 60.677,332.443 60.742 C 332.702 60.807,332.960 60.935,333.016 61.026 C 333.072 61.117,333.429 61.234,333.809 61.285 C 334.237 61.342,334.500 61.464,334.500 61.605 C 334.500 61.748,334.688 61.833,335.000 61.833 C 335.333 61.833,335.500 61.917,335.500 62.083 C 335.500 62.258,335.676 62.333,336.083 62.333 C 336.491 62.333,336.667 62.409,336.667 62.583 C 336.667 62.769,336.861 62.833,337.417 62.833 C 337.972 62.833,338.167 62.898,338.167 63.083 C 338.167 63.250,338.333 63.333,338.667 63.333 C 338.983 63.333,339.167 63.419,339.167 63.566 C 339.167 63.817,339.516 64.000,339.996 64.000 C 340.162 64.000,340.341 64.112,340.394 64.250 C 340.446 64.387,340.671 64.500,340.894 64.500 C 341.116 64.500,341.341 64.612,341.394 64.750 C 341.449 64.893,341.697 65.000,341.977 65.000 C 342.256 65.000,342.505 65.107,342.560 65.250 C 342.613 65.387,342.838 65.500,343.060 65.500 C 343.283 65.500,343.508 65.612,343.560 65.750 C 343.624 65.915,343.885 66.000,344.328 66.000 C 344.814 66.000,345.000 66.069,345.000 66.250 C 345.000 66.415,345.165 66.500,345.482 66.500 C 345.757 66.500,346.006 66.607,346.060 66.750 C 346.116 66.896,346.366 67.000,346.661 67.000 C 346.982 67.000,347.167 67.085,347.167 67.232 C 347.167 67.359,347.363 67.513,347.603 67.573 C 347.844 67.634,348.149 67.792,348.282 67.925 C 348.415 68.058,348.674 68.167,348.857 68.167 C 349.040 68.167,349.303 68.279,349.440 68.417 C 349.578 68.554,349.948 68.667,350.262 68.667 C 350.659 68.667,350.833 68.743,350.833 68.917 C 350.833 69.083,351.000 69.167,351.333 69.167 C 351.667 69.167,351.833 69.250,351.833 69.417 C 351.833 69.591,352.009 69.667,352.417 69.667 C 352.824 69.667,353.000 69.742,353.000 69.917 C 353.000 70.081,353.165 70.167,353.482 70.167 C 353.754 70.167,354.006 70.274,354.059 70.414 C 354.111 70.550,354.452 70.708,354.817 70.767 C 355.181 70.825,355.519 70.976,355.568 71.103 C 355.616 71.230,355.884 71.333,356.161 71.333 C 356.499 71.333,356.667 71.416,356.667 71.583 C 356.667 71.750,356.833 71.833,357.167 71.833 C 357.500 71.833,357.667 71.917,357.667 72.083 C 357.667 72.251,357.834 72.333,358.172 72.333 C 358.467 72.333,358.717 72.437,358.773 72.583 C 358.838 72.753,359.104 72.833,359.601 72.833 C 360.141 72.833,360.333 72.899,360.333 73.083 C 360.333 73.250,360.500 73.333,360.833 73.333 C 361.108 73.333,361.333 73.404,361.333 73.491 C 361.333 73.669,362.909 74.500,363.246 74.500 C 363.366 74.500,363.508 74.612,363.560 74.750 C 363.624 74.915,363.885 75.000,364.328 75.000 C 364.814 75.000,365.000 75.069,365.000 75.250 C 365.000 75.418,365.168 75.500,365.512 75.500 C 365.793 75.500,366.136 75.612,366.274 75.750 C 366.411 75.887,366.659 76.000,366.825 76.000 C 366.990 76.000,367.219 76.112,367.333 76.250 C 367.447 76.387,367.794 76.500,368.104 76.500 C 368.493 76.500,368.667 76.577,368.667 76.750 C 368.667 76.923,368.840 77.000,369.231 77.000 C 369.654 77.000,369.816 77.083,369.882 77.333 C 369.939 77.554,370.109 77.667,370.383 77.667 C 370.611 77.667,370.841 77.779,370.894 77.917 C 370.946 78.054,371.171 78.167,371.394 78.167 C 371.616 78.167,371.841 78.279,371.894 78.417 C 371.959 78.588,372.227 78.667,372.745 78.667 C 373.305 78.667,373.500 78.731,373.500 78.917 C 373.500 79.083,373.667 79.167,374.000 79.167 C 374.333 79.167,374.500 79.250,374.500 79.417 C 374.500 79.583,374.667 79.667,375.000 79.667 C 375.333 79.667,375.500 79.750,375.500 79.917 C 375.500 80.091,375.676 80.167,376.083 80.167 C 376.495 80.167,376.667 80.241,376.667 80.421 C 376.667 80.570,376.873 80.716,377.167 80.775 C 377.442 80.830,377.667 80.978,377.667 81.104 C 377.667 81.261,377.880 81.333,378.339 81.333 C 378.782 81.333,379.043 81.418,379.106 81.583 C 379.166 81.738,379.419 81.833,379.768 81.833 C 380.159 81.833,380.333 81.910,380.333 82.083 C 380.333 82.250,380.500 82.333,380.833 82.333 C 381.167 82.333,381.333 82.417,381.333 82.583 C 381.333 82.756,381.507 82.833,381.896 82.833 C 382.206 82.833,382.553 82.946,382.667 83.083 C 382.781 83.221,383.127 83.333,383.437 83.333 C 383.823 83.333,384.000 83.411,384.000 83.580 C 384.000 83.716,384.206 83.877,384.458 83.939 C 384.710 84.001,384.964 84.123,385.021 84.210 C 385.078 84.298,385.472 84.409,385.896 84.456 C 386.395 84.513,386.667 84.624,386.667 84.772 C 386.667 85.011,389.830 85.119,390.403 84.899 C 390.901 84.708,390.730 84.000,390.186 84.000 C 389.846 84.000,389.680 83.903,389.618 83.667 C 389.566 83.465,389.391 83.333,389.177 83.333 C 388.982 83.333,388.780 83.221,388.727 83.083 C 388.672 82.941,388.424 82.833,388.149 82.833 C 387.831 82.833,387.667 82.748,387.667 82.583 C 387.667 82.446,387.562 82.333,387.434 82.333 C 387.307 82.333,387.159 82.221,387.106 82.083 C 387.050 81.937,386.801 81.833,386.505 81.833 C 386.167 81.833,386.000 81.751,386.000 81.583 C 386.000 81.446,385.887 81.333,385.750 81.333 C 385.613 81.333,385.500 81.221,385.500 81.083 C 385.500 80.917,385.333 80.833,385.000 80.833 C 384.654 80.833,384.500 80.752,384.500 80.568 C 384.500 80.422,384.351 80.263,384.169 80.215 C 383.986 80.168,383.878 80.062,383.929 79.980 C 383.980 79.898,383.885 79.779,383.719 79.716 C 383.553 79.654,383.318 79.504,383.196 79.384 C 383.075 79.265,382.832 79.167,382.655 79.167 C 382.478 79.167,382.333 79.054,382.333 78.917 C 382.333 78.750,382.167 78.667,381.833 78.667 C 381.500 78.667,381.333 78.583,381.333 78.417 C 381.333 78.279,381.245 78.167,381.138 78.167 C 380.780 78.167,379.675 77.586,379.671 77.396 C 379.669 77.293,379.442 77.163,379.167 77.108 C 378.873 77.050,378.667 76.903,378.667 76.754 C 378.667 76.614,378.562 76.500,378.434 76.500 C 378.307 76.500,378.159 76.387,378.106 76.250 C 378.054 76.113,377.829 76.000,377.606 76.000 C 377.384 76.000,377.159 75.888,377.106 75.750 C 377.054 75.613,376.896 75.500,376.755 75.500 C 376.615 75.500,376.500 75.387,376.500 75.250 C 376.500 75.112,376.387 75.000,376.250 75.000 C 376.113 75.000,376.000 74.887,376.000 74.750 C 376.000 74.583,375.833 74.500,375.500 74.500 C 375.167 74.500,375.000 74.417,375.000 74.250 C 375.000 74.085,374.835 74.000,374.511 74.000 C 374.169 74.000,373.991 73.900,373.917 73.667 C 373.858 73.483,373.736 73.333,373.644 73.333 C 373.551 73.333,373.364 73.221,373.226 73.083 C 373.089 72.946,372.832 72.833,372.655 72.833 C 372.478 72.833,372.333 72.721,372.333 72.583 C 372.333 72.446,372.253 72.333,372.155 72.333 C 372.057 72.333,371.864 72.221,371.726 72.083 C 371.589 71.946,371.332 71.833,371.155 71.833 C 370.978 71.833,370.833 71.721,370.833 71.583 C 370.833 71.409,370.657 71.333,370.250 71.333 C 369.843 71.333,369.667 71.258,369.667 71.083 C 369.667 70.946,369.554 70.833,369.417 70.833 C 369.279 70.833,369.167 70.721,369.167 70.583 C 369.167 70.446,369.054 70.333,368.917 70.333 C 368.779 70.333,368.667 70.255,368.667 70.158 C 368.667 70.062,368.404 69.873,368.083 69.739 C 367.762 69.605,367.500 69.422,367.500 69.331 C 367.500 69.241,367.275 69.167,367.000 69.167 C 366.667 69.167,366.500 69.083,366.500 68.917 C 366.500 68.779,366.387 68.667,366.250 68.667 C 366.113 68.667,366.000 68.554,366.000 68.417 C 366.000 68.250,365.833 68.167,365.500 68.167 C 365.167 68.167,365.000 68.083,365.000 67.917 C 365.000 67.778,364.852 67.667,364.667 67.667 C 364.481 67.667,364.333 67.556,364.333 67.417 C 364.333 67.259,364.174 67.167,363.901 67.167 C 363.609 67.167,363.441 67.059,363.382 66.833 C 363.334 66.650,363.199 66.500,363.082 66.500 C 362.965 66.500,362.826 66.387,362.773 66.250 C 362.720 66.112,362.487 66.000,362.255 66.000 C 361.991 66.000,361.833 65.906,361.833 65.750 C 361.833 65.612,361.691 65.500,361.518 65.500 C 361.344 65.500,361.159 65.387,361.106 65.250 C 361.054 65.113,360.866 65.000,360.690 65.000 C 360.513 65.000,360.326 64.887,360.273 64.750 C 360.220 64.613,360.070 64.500,359.940 64.500 C 359.809 64.500,359.659 64.388,359.606 64.250 C 359.554 64.113,359.321 64.000,359.089 64.000 C 358.857 64.000,358.667 63.915,358.667 63.811 C 358.667 63.520,357.854 62.833,357.509 62.833 C 357.340 62.833,357.159 62.721,357.106 62.583 C 357.054 62.446,356.904 62.333,356.773 62.333 C 356.642 62.333,356.492 62.221,356.440 62.083 C 356.387 61.946,356.154 61.833,355.922 61.833 C 355.658 61.833,355.500 61.740,355.500 61.583 C 355.500 61.446,355.396 61.333,355.268 61.333 C 355.140 61.333,354.992 61.221,354.940 61.083 C 354.884 60.937,354.634 60.833,354.339 60.833 C 354.001 60.833,353.833 60.751,353.833 60.583 C 353.833 60.368,353.538 60.253,353.135 60.310 C 353.072 60.319,352.973 60.178,352.916 59.997 C 352.858 59.815,352.703 59.667,352.572 59.667 C 352.441 59.667,352.333 59.554,352.333 59.417 C 352.333 59.250,352.167 59.167,351.833 59.167 C 351.500 59.167,351.333 59.083,351.333 58.917 C 351.333 58.779,351.218 58.667,351.078 58.667 C 350.938 58.667,350.780 58.554,350.727 58.417 C 350.672 58.274,350.424 58.167,350.149 58.167 C 349.831 58.167,349.667 58.081,349.667 57.917 C 349.667 57.779,349.554 57.667,349.417 57.667 C 349.279 57.667,349.167 57.554,349.167 57.417 C 349.167 57.252,349.002 57.167,348.686 57.167 C 348.346 57.167,348.180 57.069,348.118 56.833 C 348.068 56.642,347.891 56.500,347.703 56.500 C 347.522 56.500,347.281 56.387,347.167 56.250 C 347.053 56.112,346.856 56.000,346.730 56.000 C 346.603 56.000,346.500 55.887,346.500 55.750 C 346.500 55.583,346.333 55.500,346.000 55.500 C 345.667 55.500,345.500 55.417,345.500 55.250 C 345.500 55.112,345.387 55.000,345.250 55.000 C 345.113 55.000,345.000 54.887,345.000 54.750 C 345.000 54.612,344.858 54.500,344.684 54.500 C 344.511 54.500,344.326 54.387,344.273 54.250 C 344.220 54.112,344.062 54.000,343.922 54.000 C 343.782 54.000,343.517 53.850,343.333 53.667 C 343.150 53.483,342.850 53.333,342.667 53.333 C 342.481 53.333,342.333 53.222,342.333 53.083 C 342.333 52.946,342.240 52.830,342.125 52.826 C 342.010 52.822,341.733 52.597,341.508 52.326 C 341.283 52.055,340.935 51.833,340.734 51.833 C 340.533 51.833,340.326 51.721,340.273 51.583 C 340.220 51.446,340.062 51.333,339.922 51.333 C 339.782 51.333,339.667 51.221,339.667 51.083 C 339.667 50.917,339.500 50.833,339.167 50.833 C 338.833 50.833,338.667 50.750,338.667 50.583 C 338.667 50.446,338.554 50.333,338.417 50.333 C 338.279 50.333,338.167 50.219,338.167 50.079 C 338.167 49.931,337.962 49.784,337.677 49.727 C 337.408 49.673,337.148 49.525,337.099 49.398 C 337.050 49.271,336.904 49.167,336.773 49.167 C 336.642 49.167,336.492 49.054,336.440 48.917 C 336.387 48.779,336.154 48.667,335.922 48.667 C 335.658 48.667,335.500 48.573,335.500 48.417 C 335.500 48.250,335.333 48.167,335.000 48.167 C 334.667 48.167,334.500 48.083,334.500 47.917 C 334.500 47.779,334.385 47.667,334.245 47.667 C 334.104 47.667,333.946 47.554,333.894 47.417 C 333.839 47.274,333.590 47.167,333.316 47.167 C 332.940 47.167,332.833 47.091,332.833 46.823 C 332.833 46.635,332.762 46.524,332.675 46.578 C 332.588 46.632,332.435 46.524,332.336 46.338 C 332.229 46.139,331.986 46.000,331.744 46.000 C 331.490 46.000,331.333 45.905,331.333 45.750 C 331.333 45.612,331.225 45.500,331.092 45.500 C 330.959 45.500,330.790 45.393,330.717 45.262 C 330.577 45.013,330.542 45.000,330.000 45.000 C 329.815 45.000,329.667 44.889,329.667 44.750 C 329.667 44.612,329.562 44.500,329.434 44.500 C 329.307 44.500,329.159 44.387,329.106 44.250 C 329.054 44.112,328.821 44.000,328.589 44.000 C 328.348 44.000,328.167 43.904,328.167 43.778 C 328.167 43.655,327.795 43.374,327.340 43.153 C 326.885 42.931,326.510 42.656,326.506 42.542 C 326.503 42.423,326.285 42.333,326.000 42.333 C 325.667 42.333,325.500 42.250,325.500 42.083 C 325.500 41.927,325.342 41.833,325.078 41.833 C 324.846 41.833,324.613 41.721,324.560 41.583 C 324.508 41.446,324.360 41.333,324.232 41.333 C 324.104 41.333,324.000 41.221,324.000 41.083 C 324.000 40.946,323.885 40.833,323.745 40.833 C 323.604 40.833,323.446 40.721,323.394 40.583 C 323.339 40.441,323.090 40.333,322.816 40.333 C 322.440 40.333,322.333 40.258,322.333 39.990 C 322.333 39.801,322.273 39.684,322.199 39.730 C 322.125 39.776,321.850 39.555,321.587 39.240 C 321.305 38.902,320.957 38.667,320.739 38.667 C 320.535 38.667,320.326 38.554,320.273 38.417 C 320.220 38.279,320.062 38.167,319.922 38.167 C 319.782 38.167,319.667 38.054,319.667 37.917 C 319.667 37.750,319.500 37.667,319.167 37.667 C 318.833 37.667,318.667 37.583,318.667 37.417 C 318.667 37.279,318.554 37.167,318.417 37.167 C 318.279 37.167,318.167 37.060,318.167 36.930 C 318.167 36.800,317.948 36.645,317.681 36.586 C 317.413 36.528,317.153 36.372,317.102 36.240 C 317.050 36.104,316.791 36.000,316.505 36.000 C 316.167 36.000,316.000 35.917,316.000 35.750 C 316.000 35.612,315.887 35.500,315.750 35.500 C 315.612 35.500,315.500 35.387,315.500 35.250 C 315.500 35.083,315.333 35.000,315.000 35.000 C 314.667 35.000,314.500 34.917,314.500 34.750 C 314.500 34.612,314.387 34.500,314.250 34.500 C 314.112 34.500,314.000 34.387,314.000 34.250 C 314.000 34.075,313.824 34.000,313.417 34.000 C 313.054 34.000,312.833 33.919,312.833 33.787 C 312.833 33.568,312.260 33.000,312.038 33.000 C 311.970 33.000,311.820 32.850,311.705 32.667 C 311.591 32.483,311.348 32.333,311.165 32.333 C 310.983 32.333,310.833 32.260,310.833 32.170 C 310.833 32.080,310.460 31.836,310.003 31.628 C 309.547 31.420,309.172 31.156,309.170 31.042 C 309.168 30.927,309.054 30.833,308.917 30.833 C 308.779 30.833,308.667 30.721,308.667 30.583 C 308.667 30.446,308.525 30.333,308.351 30.333 C 308.178 30.333,307.992 30.221,307.940 30.083 C 307.887 29.946,307.732 29.833,307.594 29.833 C 307.457 29.833,307.265 29.683,307.167 29.500 C 307.069 29.317,306.886 29.167,306.762 29.167 C 306.637 29.167,306.492 29.054,306.440 28.917 C 306.387 28.779,306.154 28.667,305.922 28.667 C 305.658 28.667,305.500 28.573,305.500 28.417 C 305.500 28.279,305.387 28.167,305.250 28.167 C 305.112 28.167,305.000 28.054,305.000 27.917 C 305.000 27.750,304.833 27.667,304.500 27.667 C 304.167 27.667,304.000 27.583,304.000 27.417 C 304.000 27.279,303.922 27.167,303.828 27.167 C 303.733 27.167,303.438 26.944,303.173 26.673 C 302.907 26.401,302.497 26.130,302.262 26.071 C 302.026 26.012,301.833 25.859,301.833 25.732 C 301.833 25.604,301.683 25.500,301.500 25.500 C 301.317 25.500,301.167 25.426,301.167 25.337 C 301.167 25.247,300.985 25.127,300.762 25.071 C 300.540 25.016,300.317 24.864,300.267 24.735 C 300.218 24.606,300.062 24.500,299.922 24.500 C 299.782 24.500,299.667 24.387,299.667 24.250 C 299.667 24.083,299.500 24.000,299.167 24.000 C 298.833 24.000,298.667 23.917,298.667 23.750 C 298.667 23.613,298.526 23.500,298.354 23.500 C 298.182 23.500,297.952 23.392,297.842 23.261 C 297.107 22.375,293.070 21.908,291.814 22.563 M3.708 29.786 C 3.573 29.835,3.500 30.212,3.500 30.857 C 3.500 31.520,3.559 31.816,3.678 31.743 C 3.776 31.683,3.897 31.790,3.947 31.983 C 3.998 32.176,4.143 32.333,4.269 32.333 C 4.396 32.333,4.500 32.446,4.500 32.583 C 4.500 32.722,4.648 32.833,4.833 32.833 C 5.017 32.833,5.148 32.927,5.125 33.042 C 5.102 33.159,5.284 33.273,5.542 33.303 C 5.804 33.333,6.000 33.458,6.000 33.594 C 6.000 33.726,6.070 33.833,6.155 33.833 C 6.240 33.833,6.438 33.962,6.595 34.119 C 6.752 34.276,6.999 34.421,7.144 34.443 C 7.289 34.464,7.485 34.584,7.579 34.709 C 7.673 34.835,7.886 34.988,8.052 35.051 C 8.218 35.113,8.308 35.240,8.251 35.332 C 8.190 35.430,8.351 35.500,8.639 35.500 C 8.923 35.500,9.172 35.606,9.227 35.750 C 9.280 35.887,9.438 36.000,9.578 36.000 C 9.718 36.000,9.833 36.112,9.833 36.250 C 9.833 36.414,9.998 36.500,10.314 36.500 C 10.638 36.500,10.820 36.598,10.874 36.803 C 10.917 36.970,11.245 37.243,11.602 37.411 C 11.958 37.578,12.310 37.816,12.383 37.941 C 12.457 38.065,12.738 38.167,13.008 38.167 C 13.316 38.167,13.500 38.253,13.500 38.397 C 13.500 38.524,13.658 38.669,13.850 38.719 C 14.043 38.770,14.151 38.891,14.090 38.989 C 14.022 39.100,14.171 39.167,14.490 39.167 C 14.832 39.167,15.000 39.249,15.000 39.417 C 15.000 39.554,15.112 39.667,15.250 39.667 C 15.387 39.667,15.500 39.779,15.500 39.917 C 15.500 40.076,15.660 40.167,15.939 40.167 C 16.360 40.167,17.167 40.829,17.167 41.175 C 17.167 41.262,17.392 41.333,17.667 41.333 C 18.000 41.333,18.167 41.417,18.167 41.583 C 18.167 41.725,18.316 41.833,18.510 41.833 C 18.699 41.833,18.806 41.909,18.749 42.002 C 18.691 42.096,18.872 42.216,19.156 42.273 C 19.437 42.329,19.667 42.442,19.667 42.525 C 19.667 42.607,19.859 42.748,20.093 42.837 C 20.328 42.926,20.474 43.075,20.417 43.166 C 20.357 43.264,20.525 43.333,20.823 43.333 C 21.170 43.333,21.333 43.415,21.333 43.589 C 21.333 43.729,21.465 43.893,21.625 43.954 C 21.785 44.015,22.016 44.163,22.137 44.282 C 22.258 44.402,22.456 44.500,22.577 44.500 C 22.699 44.500,22.841 44.612,22.894 44.750 C 22.946 44.887,23.095 45.000,23.224 45.000 C 23.354 45.000,23.553 45.112,23.667 45.250 C 23.781 45.387,24.015 45.500,24.187 45.500 C 24.359 45.500,24.500 45.612,24.500 45.750 C 24.500 45.917,24.667 46.000,25.000 46.000 C 25.333 46.000,25.500 46.083,25.500 46.250 C 25.500 46.387,25.613 46.500,25.750 46.500 C 25.887 46.500,26.000 46.607,26.000 46.737 C 26.000 46.868,26.239 47.026,26.533 47.091 C 26.826 47.155,27.255 47.423,27.487 47.687 C 27.718 47.951,28.060 48.170,28.245 48.174 C 28.431 48.178,28.767 48.403,28.992 48.674 C 29.267 49.005,29.554 49.167,29.867 49.167 C 30.170 49.167,30.333 49.254,30.333 49.417 C 30.333 49.554,30.438 49.667,30.566 49.667 C 30.693 49.667,30.841 49.779,30.894 49.917 C 30.946 50.054,31.179 50.167,31.411 50.167 C 31.643 50.167,31.833 50.250,31.833 50.352 C 31.833 50.717,32.587 51.328,33.042 51.330 C 33.337 51.332,33.500 51.422,33.500 51.583 C 33.500 51.722,33.648 51.833,33.833 51.833 C 34.017 51.833,34.167 51.907,34.167 51.997 C 34.167 52.087,34.349 52.206,34.571 52.262 C 34.794 52.318,35.016 52.469,35.066 52.598 C 35.116 52.728,35.299 52.833,35.474 52.833 C 35.649 52.833,35.886 52.946,36.000 53.083 C 36.114 53.221,36.302 53.333,36.418 53.333 C 36.533 53.333,36.667 53.483,36.715 53.667 C 36.774 53.892,36.942 54.000,37.234 54.000 C 37.508 54.000,37.667 54.092,37.667 54.250 C 37.667 54.387,37.747 54.500,37.845 54.500 C 37.943 54.500,38.136 54.612,38.274 54.750 C 38.411 54.887,38.668 55.000,38.845 55.000 C 39.022 55.000,39.167 55.112,39.167 55.250 C 39.167 55.390,39.315 55.500,39.505 55.500 C 39.691 55.500,39.887 55.612,39.940 55.750 C 39.992 55.887,40.215 56.000,40.434 56.000 C 40.678 56.000,40.833 56.097,40.833 56.250 C 40.833 56.417,41.000 56.500,41.333 56.500 C 41.654 56.500,41.833 56.585,41.833 56.736 C 41.833 56.981,42.806 57.667,43.153 57.667 C 43.261 57.667,43.537 57.869,43.766 58.116 C 43.995 58.363,44.345 58.590,44.545 58.621 C 44.745 58.651,44.970 58.786,45.046 58.921 C 45.121 59.056,45.283 59.167,45.405 59.167 C 45.526 59.167,45.719 59.279,45.833 59.417 C 45.947 59.554,46.182 59.667,46.354 59.667 C 46.526 59.667,46.667 59.779,46.667 59.917 C 46.667 60.083,46.833 60.167,47.167 60.167 C 47.442 60.167,47.667 60.238,47.667 60.325 C 47.667 60.626,48.456 61.333,48.793 61.333 C 48.979 61.333,49.174 61.446,49.227 61.583 C 49.280 61.721,49.438 61.833,49.578 61.833 C 49.718 61.833,49.833 61.946,49.833 62.083 C 49.833 62.250,50.000 62.333,50.333 62.333 C 50.667 62.333,50.833 62.417,50.833 62.583 C 50.833 62.722,50.981 62.833,51.167 62.833 C 51.350 62.833,51.481 62.927,51.458 63.042 C 51.435 63.159,51.617 63.273,51.875 63.303 C 52.134 63.333,52.333 63.458,52.333 63.591 C 52.333 63.721,52.520 63.874,52.749 63.931 C 52.977 63.989,53.123 64.103,53.072 64.184 C 53.022 64.266,53.135 64.333,53.325 64.333 C 53.515 64.333,53.798 64.483,53.955 64.667 C 54.112 64.850,54.393 65.003,54.579 65.007 C 54.765 65.011,55.101 65.236,55.326 65.507 C 55.600 65.838,55.887 66.000,56.201 66.000 C 56.504 66.000,56.667 66.087,56.667 66.250 C 56.667 66.387,56.770 66.500,56.896 66.500 C 57.023 66.500,57.219 66.612,57.333 66.750 C 57.447 66.887,57.674 67.000,57.836 67.000 C 57.998 67.000,58.174 67.112,58.227 67.250 C 58.280 67.387,58.431 67.500,58.564 67.500 C 58.696 67.500,59.075 67.762,59.405 68.083 C 59.736 68.404,60.072 68.667,60.152 68.667 C 60.232 68.667,60.341 68.779,60.394 68.917 C 60.446 69.054,60.679 69.167,60.911 69.167 C 61.175 69.167,61.333 69.260,61.333 69.417 C 61.333 69.554,61.448 69.667,61.589 69.667 C 61.729 69.667,61.887 69.779,61.940 69.917 C 61.992 70.054,62.215 70.167,62.434 70.167 C 62.676 70.167,62.833 70.264,62.833 70.413 C 62.833 70.549,63.020 70.707,63.249 70.765 C 63.477 70.822,63.627 70.930,63.581 71.004 C 63.535 71.079,63.723 71.189,63.999 71.250 C 64.274 71.310,64.500 71.466,64.500 71.597 C 64.500 71.727,64.650 71.833,64.833 71.833 C 65.017 71.833,65.167 71.907,65.167 71.997 C 65.167 72.087,65.349 72.206,65.571 72.262 C 65.794 72.318,66.016 72.469,66.066 72.598 C 66.116 72.729,66.380 72.833,66.661 72.833 C 66.999 72.833,67.167 72.916,67.167 73.083 C 67.167 73.221,67.279 73.333,67.417 73.333 C 67.554 73.333,67.667 73.412,67.667 73.509 C 67.667 73.605,67.892 73.762,68.167 73.858 C 68.442 73.954,68.667 74.095,68.667 74.172 C 68.667 74.248,68.818 74.359,69.002 74.417 C 69.187 74.476,69.300 74.586,69.253 74.661 C 69.154 74.821,69.555 75.000,70.014 75.000 C 70.189 75.000,70.333 75.112,70.333 75.250 C 70.333 75.387,70.438 75.500,70.566 75.500 C 70.693 75.500,70.841 75.612,70.894 75.750 C 70.946 75.887,71.142 76.000,71.328 76.000 C 71.680 76.000,72.333 76.542,72.333 76.833 C 72.333 76.925,72.479 77.000,72.657 77.000 C 72.835 77.000,73.030 77.080,73.090 77.177 C 73.150 77.274,73.379 77.422,73.600 77.506 C 73.820 77.590,74.000 77.756,74.000 77.876 C 74.000 77.996,74.204 78.111,74.452 78.131 C 74.701 78.152,74.967 78.281,75.044 78.418 C 75.121 78.555,75.292 78.667,75.425 78.667 C 75.558 78.667,75.648 78.760,75.625 78.875 C 75.600 79.000,75.801 79.104,76.125 79.136 C 76.461 79.168,76.667 79.279,76.667 79.427 C 76.667 79.559,76.779 79.667,76.917 79.667 C 77.054 79.667,77.167 79.779,77.167 79.917 C 77.167 80.083,77.333 80.167,77.667 80.167 C 78.000 80.167,78.167 80.250,78.167 80.417 C 78.167 80.554,78.242 80.676,78.333 80.688 C 78.425 80.699,78.594 80.721,78.708 80.737 C 78.823 80.752,78.898 80.855,78.875 80.966 C 78.852 81.076,78.890 81.155,78.958 81.140 C 79.177 81.094,79.745 81.384,79.883 81.612 C 79.957 81.734,80.200 81.833,80.425 81.833 C 80.677 81.833,80.833 81.929,80.833 82.083 C 80.833 82.221,80.946 82.333,81.083 82.333 C 81.221 82.333,81.333 82.429,81.333 82.547 C 81.333 82.664,81.537 82.777,81.786 82.798 C 82.034 82.819,82.301 82.948,82.377 83.084 C 82.454 83.221,82.598 83.333,82.698 83.333 C 82.798 83.333,82.965 83.450,83.070 83.593 C 83.174 83.735,83.378 83.869,83.523 83.891 C 83.668 83.912,83.915 84.058,84.072 84.215 C 84.229 84.372,84.431 84.500,84.522 84.500 C 84.612 84.500,84.640 84.575,84.583 84.667 C 84.527 84.758,84.560 84.843,84.657 84.854 C 84.754 84.866,84.908 84.894,85.000 84.917 C 85.092 84.940,85.242 84.968,85.333 84.979 C 85.425 84.991,85.500 85.112,85.500 85.250 C 85.500 85.402,85.655 85.500,85.896 85.500 C 86.114 85.500,86.386 85.612,86.500 85.750 C 86.614 85.888,86.811 86.000,86.937 86.000 C 87.063 86.000,87.167 86.112,87.167 86.250 C 87.167 86.388,87.309 86.500,87.482 86.500 C 87.656 86.500,87.841 86.612,87.894 86.750 C 87.946 86.888,88.142 87.000,88.328 87.000 C 88.514 87.000,88.667 87.071,88.667 87.157 C 88.667 87.243,89.042 87.525,89.500 87.782 C 89.958 88.039,90.333 88.344,90.333 88.458 C 90.333 88.573,90.523 88.667,90.755 88.667 C 90.987 88.667,91.220 88.779,91.273 88.917 C 91.326 89.054,91.473 89.167,91.601 89.167 C 91.729 89.167,91.833 89.274,91.833 89.406 C 91.833 89.554,92.039 89.665,92.375 89.698 C 92.699 89.729,92.900 89.834,92.875 89.958 C 92.852 90.073,92.983 90.167,93.167 90.167 C 93.350 90.167,93.500 90.274,93.500 90.405 C 93.500 90.673,94.073 90.911,94.332 90.751 C 94.424 90.694,94.500 90.801,94.500 90.990 C 94.500 91.184,94.609 91.333,94.750 91.333 C 94.888 91.333,95.000 91.446,95.000 91.583 C 95.000 91.748,95.165 91.833,95.482 91.833 C 95.757 91.833,96.006 91.941,96.060 92.083 C 96.192 92.426,97.594 92.431,97.725 92.089 C 97.790 91.918,97.646 91.797,97.240 91.685 C 96.922 91.597,96.119 91.123,95.456 90.632 C 94.792 90.140,93.594 89.302,92.792 88.770 C 91.990 88.238,91.333 87.734,91.333 87.651 C 91.333 87.568,91.244 87.500,91.135 87.500 C 91.026 87.500,90.070 86.919,89.011 86.208 C 87.028 84.878,86.596 84.602,86.167 84.390 C 86.029 84.322,85.654 84.086,85.333 83.866 C 85.012 83.647,84.581 83.401,84.375 83.321 C 84.169 83.241,84.000 83.098,84.000 83.004 C 84.000 82.910,83.924 82.833,83.832 82.833 C 83.739 82.833,83.308 82.585,82.873 82.280 C 82.439 81.976,81.371 81.293,80.500 80.763 C 77.865 79.157,77.095 78.673,76.833 78.456 C 76.359 78.065,75.185 77.316,74.500 76.968 C 74.271 76.852,74.046 76.714,74.000 76.661 C 73.954 76.609,73.617 76.385,73.250 76.163 C 72.883 75.942,72.508 75.700,72.417 75.626 C 71.686 75.034,69.573 73.575,68.250 72.750 C 67.369 72.200,66.319 71.506,65.918 71.208 C 65.516 70.910,65.118 70.667,65.034 70.667 C 64.950 70.667,64.537 70.404,64.117 70.083 C 63.697 69.762,63.280 69.500,63.191 69.500 C 63.101 69.500,63.003 69.437,62.972 69.360 C 62.912 69.208,61.229 68.000,61.078 68.000 C 60.991 68.000,60.010 67.343,59.833 67.167 C 59.788 67.121,59.600 66.993,59.417 66.882 C 59.233 66.771,58.306 66.209,57.357 65.632 C 56.407 65.055,55.432 64.478,55.190 64.349 C 54.948 64.220,54.725 64.052,54.694 63.974 C 54.664 63.897,54.536 63.833,54.411 63.833 C 54.286 63.833,54.123 63.735,54.050 63.614 C 53.977 63.494,53.429 63.103,52.833 62.745 C 51.439 61.907,49.631 60.687,49.417 60.440 C 49.325 60.335,48.810 60.024,48.272 59.749 C 46.699 58.946,46.667 58.927,46.667 58.794 C 46.667 58.724,46.585 58.667,46.485 58.667 C 46.286 58.667,41.792 55.652,41.239 55.147 C 41.050 54.975,40.851 54.833,40.798 54.833 C 40.669 54.833,37.339 52.737,35.704 51.626 C 34.995 51.144,34.210 50.644,33.960 50.515 C 33.710 50.386,33.368 50.161,33.201 50.015 C 33.033 49.869,32.568 49.571,32.166 49.351 C 31.764 49.132,31.356 48.887,31.259 48.807 C 30.638 48.294,29.498 47.500,29.381 47.500 C 29.304 47.500,28.643 47.091,27.912 46.590 C 27.181 46.090,26.246 45.475,25.833 45.223 C 25.421 44.972,24.603 44.406,24.017 43.966 C 23.430 43.527,22.877 43.167,22.788 43.167 C 22.699 43.167,21.979 42.729,21.188 42.194 C 19.961 41.364,16.664 39.333,15.192 38.500 C 14.949 38.362,14.725 38.194,14.694 38.125 C 14.664 38.056,14.538 38.000,14.415 38.000 C 14.291 38.000,14.091 37.901,13.970 37.781 C 13.849 37.660,13.412 37.359,13.000 37.112 C 12.175 36.618,11.829 36.331,11.089 35.527 L 10.594 34.989 11.089 34.976 C 13.752 34.904,13.269 34.762,17.902 36.989 C 18.827 37.433,20.146 38.057,20.833 38.376 C 21.521 38.695,22.946 39.369,24.000 39.875 C 25.054 40.380,26.742 41.106,27.750 41.487 C 31.115 42.759,32.242 43.214,33.250 43.707 C 35.998 45.050,40.386 47.085,41.468 47.517 C 42.138 47.785,43.068 48.198,43.534 48.434 C 44.000 48.670,45.402 49.274,46.649 49.776 C 47.896 50.278,49.306 50.871,49.781 51.095 C 50.257 51.318,50.707 51.498,50.781 51.495 C 50.903 51.491,51.939 51.975,53.696 52.855 C 54.032 53.024,54.670 53.283,55.112 53.431 C 55.928 53.703,56.500 53.961,60.083 55.670 C 61.183 56.195,62.833 56.939,63.750 57.324 C 64.667 57.708,65.754 58.177,66.167 58.366 C 66.579 58.555,67.179 58.803,67.500 58.918 C 67.821 59.033,68.533 59.330,69.083 59.579 C 69.633 59.827,70.383 60.164,70.750 60.330 C 71.117 60.495,71.979 60.892,72.667 61.212 C 73.354 61.533,74.479 62.039,75.167 62.337 C 75.854 62.635,77.037 63.168,77.795 63.523 C 78.553 63.877,79.269 64.167,79.387 64.167 C 79.504 64.167,79.671 64.234,79.758 64.316 C 79.845 64.399,80.929 64.891,82.167 65.411 C 83.404 65.931,84.808 66.536,85.287 66.757 C 85.766 66.978,86.366 67.208,86.620 67.269 C 86.875 67.330,87.158 67.436,87.250 67.506 C 87.342 67.575,87.904 67.835,88.500 68.084 C 90.235 68.807,94.834 71.013,95.667 71.520 C 95.987 71.716,96.851 72.054,97.585 72.273 L 98.919 72.670 106.280 72.542 C 110.329 72.472,113.701 72.354,113.774 72.281 C 114.118 71.938,113.061 71.850,108.447 71.838 C 104.291 71.828,103.428 71.785,103.222 71.579 C 103.038 71.395,102.558 71.333,101.321 71.333 C 99.962 71.333,99.667 71.289,99.667 71.083 C 99.667 70.946,99.610 70.842,99.542 70.853 C 98.776 70.974,97.000 70.799,97.000 70.602 C 97.000 70.457,96.727 70.330,96.265 70.261 C 95.860 70.200,95.493 70.054,95.447 69.936 C 95.402 69.818,95.092 69.712,94.759 69.699 C 94.425 69.687,94.038 69.562,93.898 69.421 C 93.758 69.281,93.461 69.167,93.238 69.167 C 92.989 69.167,92.833 69.070,92.833 68.917 C 92.833 68.732,92.641 68.667,92.101 68.667 C 91.604 68.667,91.338 68.586,91.273 68.417 C 91.220 68.279,91.070 68.167,90.940 68.167 C 90.809 68.167,90.659 68.054,90.606 67.917 C 90.554 67.779,90.329 67.667,90.106 67.667 C 89.884 67.667,89.659 67.554,89.606 67.417 C 89.552 67.275,89.303 67.167,89.031 67.167 C 88.763 67.167,88.418 67.019,88.250 66.833 C 88.084 66.650,87.770 66.500,87.552 66.500 C 87.334 66.500,87.113 66.387,87.060 66.250 C 87.007 66.111,86.759 66.000,86.500 66.000 C 86.241 66.000,85.993 65.889,85.940 65.750 C 85.884 65.604,85.634 65.500,85.339 65.500 C 85.061 65.500,84.833 65.426,84.833 65.335 C 84.833 65.245,84.527 65.122,84.152 65.062 C 83.778 65.002,83.432 64.851,83.385 64.726 C 83.337 64.602,83.081 64.500,82.816 64.500 C 82.498 64.500,82.333 64.415,82.333 64.250 C 82.333 64.081,82.164 64.000,81.810 64.000 C 81.515 64.000,81.199 63.879,81.085 63.724 C 80.907 63.480,80.643 63.398,79.875 63.347 C 79.760 63.340,79.667 63.221,79.667 63.083 C 79.667 62.916,79.499 62.833,79.161 62.833 C 78.866 62.833,78.616 62.729,78.560 62.583 C 78.498 62.422,78.240 62.333,77.833 62.333 C 77.426 62.333,77.168 62.245,77.106 62.083 C 77.050 61.937,76.801 61.833,76.505 61.833 C 76.167 61.833,76.000 61.751,76.000 61.583 C 76.000 61.417,75.833 61.333,75.500 61.333 C 75.167 61.333,75.000 61.250,75.000 61.083 C 75.000 60.910,74.826 60.833,74.434 60.833 C 74.103 60.833,73.832 60.737,73.779 60.600 C 73.730 60.472,73.391 60.316,73.025 60.254 C 72.659 60.192,72.318 60.035,72.268 59.904 C 72.218 59.774,71.985 59.667,71.750 59.667 C 71.515 59.667,71.280 59.554,71.227 59.417 C 71.172 59.274,70.924 59.167,70.649 59.167 C 70.368 59.167,70.167 59.078,70.167 58.953 C 70.167 58.836,69.963 58.723,69.714 58.702 C 69.466 58.681,69.199 58.552,69.123 58.416 C 69.036 58.260,68.736 58.167,68.325 58.167 C 67.851 58.167,67.667 58.097,67.667 57.917 C 67.667 57.742,67.491 57.667,67.083 57.667 C 66.676 57.667,66.500 57.591,66.500 57.417 C 66.500 57.252,66.335 57.167,66.019 57.167 C 65.699 57.167,65.513 57.068,65.461 56.871 C 65.419 56.708,65.222 56.563,65.024 56.548 C 64.825 56.533,64.546 56.403,64.403 56.260 C 64.260 56.117,64.007 56.000,63.842 56.000 C 63.676 56.000,63.447 55.887,63.333 55.750 C 63.219 55.612,62.948 55.500,62.730 55.500 C 62.512 55.500,62.333 55.403,62.333 55.285 C 62.333 55.163,62.102 55.053,61.795 55.030 C 61.499 55.007,61.195 54.879,61.120 54.744 C 61.036 54.594,60.730 54.500,60.325 54.500 C 59.851 54.500,59.667 54.430,59.667 54.250 C 59.667 54.083,59.500 54.000,59.167 54.000 C 58.892 54.000,58.667 53.923,58.667 53.830 C 58.667 53.736,58.460 53.568,58.208 53.457 C 57.956 53.345,57.651 53.159,57.530 53.044 C 57.409 52.928,57.160 52.833,56.976 52.833 C 56.793 52.833,56.530 52.721,56.393 52.583 C 56.255 52.446,55.886 52.333,55.571 52.333 C 55.175 52.333,55.000 52.257,55.000 52.083 C 55.000 51.919,54.835 51.833,54.518 51.833 C 54.243 51.833,53.994 51.726,53.940 51.583 C 53.884 51.437,53.634 51.333,53.339 51.333 C 53.001 51.333,52.833 51.251,52.833 51.083 C 52.833 50.917,52.667 50.833,52.333 50.833 C 52.000 50.833,51.833 50.750,51.833 50.583 C 51.833 50.409,51.657 50.333,51.250 50.333 C 50.929 50.333,50.667 50.255,50.667 50.158 C 50.667 50.062,50.404 49.873,50.083 49.739 C 49.762 49.605,49.500 49.422,49.500 49.331 C 49.500 49.241,49.284 49.167,49.020 49.167 C 48.757 49.167,48.447 49.054,48.333 48.917 C 48.219 48.779,47.873 48.667,47.563 48.667 C 47.201 48.667,47.015 48.592,47.042 48.458 C 47.067 48.334,46.866 48.229,46.542 48.198 C 46.206 48.165,46.000 48.054,46.000 47.906 C 46.000 47.751,45.824 47.667,45.500 47.667 C 45.167 47.667,45.000 47.583,45.000 47.417 C 45.000 47.242,44.824 47.167,44.417 47.167 C 44.031 47.167,43.833 47.088,43.833 46.936 C 43.833 46.695,43.345 46.506,42.708 46.502 C 42.502 46.501,42.333 46.404,42.333 46.286 C 42.333 46.169,42.133 46.056,41.888 46.036 C 41.642 46.016,41.318 45.887,41.166 45.749 C 41.014 45.612,40.615 45.500,40.279 45.500 C 39.846 45.500,39.667 45.427,39.667 45.250 C 39.667 45.085,39.502 45.000,39.184 45.000 C 38.910 45.000,38.661 44.893,38.606 44.750 C 38.543 44.585,38.281 44.500,37.833 44.500 C 37.385 44.500,37.124 44.415,37.060 44.250 C 37.006 44.107,36.757 44.000,36.482 44.000 C 36.177 44.000,36.000 43.913,36.000 43.763 C 36.000 43.633,35.781 43.478,35.514 43.420 C 35.247 43.361,34.986 43.205,34.936 43.073 C 34.885 42.941,34.662 42.833,34.440 42.833 C 34.217 42.833,33.992 42.721,33.940 42.583 C 33.885 42.440,33.636 42.333,33.356 42.333 C 33.077 42.333,32.828 42.227,32.773 42.083 C 32.720 41.946,32.496 41.833,32.276 41.833 C 32.055 41.833,31.781 41.721,31.667 41.583 C 31.553 41.446,31.281 41.333,31.063 41.333 C 30.822 41.333,30.667 41.235,30.667 41.083 C 30.667 40.946,30.610 40.842,30.542 40.853 C 29.928 40.950,29.167 40.801,29.167 40.583 C 29.167 40.409,28.991 40.333,28.589 40.333 C 28.161 40.333,28.034 40.273,28.100 40.099 C 28.162 39.939,28.016 39.827,27.637 39.745 C 27.332 39.678,26.935 39.521,26.755 39.395 C 26.574 39.270,26.218 39.167,25.963 39.167 C 25.663 39.167,25.500 39.079,25.500 38.917 C 25.500 38.750,25.333 38.667,25.000 38.667 C 24.667 38.667,24.500 38.583,24.500 38.417 C 24.500 38.252,24.335 38.167,24.018 38.167 C 23.743 38.167,23.494 38.059,23.440 37.917 C 23.385 37.773,23.136 37.667,22.856 37.667 C 22.577 37.667,22.328 37.560,22.273 37.417 C 22.211 37.255,21.953 37.167,21.545 37.167 C 21.094 37.167,20.854 37.071,20.705 36.833 C 20.591 36.650,20.329 36.498,20.124 36.495 C 19.918 36.492,19.604 36.379,19.426 36.245 C 19.249 36.110,18.900 36.000,18.653 36.000 C 18.405 36.000,18.159 35.887,18.106 35.750 C 18.050 35.604,17.801 35.500,17.505 35.500 C 17.167 35.500,17.000 35.417,17.000 35.250 C 17.000 35.085,16.835 35.000,16.518 35.000 C 16.243 35.000,15.994 34.893,15.940 34.750 C 15.877 34.587,15.617 34.500,15.190 34.500 C 14.762 34.500,14.502 34.413,14.440 34.250 C 14.384 34.104,14.134 34.000,13.839 34.000 C 13.551 34.000,13.351 33.919,13.375 33.813 C 13.398 33.709,13.192 33.548,12.917 33.455 C 12.642 33.361,12.357 33.183,12.283 33.059 C 12.210 32.935,11.974 32.833,11.760 32.833 C 11.545 32.833,11.326 32.721,11.273 32.583 C 11.220 32.446,10.985 32.333,10.750 32.333 C 10.515 32.333,10.280 32.221,10.227 32.083 C 10.174 31.946,10.021 31.833,9.887 31.833 C 9.753 31.833,9.530 31.721,9.393 31.583 C 9.255 31.446,8.923 31.333,8.655 31.333 C 8.342 31.333,8.167 31.248,8.167 31.094 C 8.167 30.946,7.961 30.835,7.625 30.802 C 7.301 30.771,7.100 30.666,7.125 30.542 C 7.152 30.407,6.961 30.333,6.583 30.333 C 6.176 30.333,6.000 30.258,6.000 30.083 C 6.000 29.946,5.944 29.822,5.875 29.808 C 5.519 29.737,3.888 29.720,3.708 29.786 M114.738 72.519 C 114.493 72.916,115.230 72.995,119.250 73.005 C 121.542 73.011,124.054 73.036,124.833 73.063 C 126.551 73.120,127.261 72.939,126.760 72.571 C 126.341 72.263,114.927 72.213,114.738 72.519 M127.865 72.953 C 127.080 73.052,127.281 73.362,128.347 73.696 C 129.595 74.088,146.444 74.153,146.444 73.767 C 146.444 73.434,145.675 73.354,142.299 73.337 C 140.162 73.326,139.192 73.257,138.784 73.087 C 138.242 72.860,129.448 72.752,127.865 72.953 M147.207 74.111 C 146.448 74.417,147.884 74.500,153.947 74.500 C 159.937 74.500,160.684 74.472,160.500 74.250 C 160.296 74.004,147.797 73.873,147.207 74.111 M168.431 74.727 C 168.582 75.120,180.711 75.292,181.142 74.908 C 181.174 74.879,181.151 74.776,181.090 74.678 C 180.909 74.384,168.318 74.433,168.431 74.727 M182.424 75.155 C 182.082 75.709,186.434 76.033,195.417 76.124 C 202.227 76.192,203.804 76.116,203.488 75.736 C 203.328 75.543,202.463 75.500,198.750 75.500 C 194.983 75.500,194.173 75.459,194.007 75.258 C 193.765 74.966,182.602 74.867,182.424 75.155 M205.333 76.329 C 205.333 76.660,205.424 76.667,209.625 76.664 C 213.824 76.662,214.906 76.543,213.970 76.187 C 213.014 75.823,205.333 75.950,205.333 76.329 M219.590 76.826 L 219.282 77.167 227.427 77.167 C 235.184 77.167,235.558 77.153,235.280 76.875 C 234.787 76.382,220.033 76.337,219.590 76.826 M238.375 77.122 C 236.971 77.249,237.526 77.626,239.292 77.746 C 240.185 77.806,241.629 77.982,242.500 78.136 C 245.330 78.637,261.848 78.391,260.614 77.866 C 260.287 77.727,258.715 77.667,255.406 77.667 C 251.554 77.667,250.667 77.625,250.667 77.443 C 250.667 77.111,241.232 76.865,238.375 77.122 M263.076 78.344 C 262.870 78.679,263.187 78.741,265.424 78.806 C 268.135 78.886,269.282 78.757,268.990 78.405 C 268.743 78.107,263.258 78.051,263.076 78.344 M269.501 78.329 C 269.133 78.562,269.469 78.798,270.250 78.855 C 270.617 78.882,270.971 78.982,271.037 79.077 C 271.165 79.262,285.834 79.266,286.316 79.081 C 287.037 78.804,285.574 78.730,278.644 78.692 C 272.382 78.658,271.059 78.610,270.771 78.409 C 270.376 78.132,269.864 78.100,269.501 78.329 M292.875 79.284 C 291.612 79.528,292.731 79.788,295.583 79.913 C 296.775 79.966,298.161 80.052,298.664 80.104 L 299.577 80.200 299.108 80.446 C 298.850 80.581,298.542 80.654,298.423 80.609 C 298.051 80.466,295.810 80.816,294.333 81.248 C 293.080 81.615,292.532 81.670,289.583 81.725 C 283.415 81.839,278.420 82.217,278.550 82.559 C 278.604 82.700,277.223 82.757,273.295 82.778 C 270.161 82.795,267.785 82.876,267.525 82.976 C 267.272 83.073,264.556 83.180,261.167 83.228 C 257.760 83.275,254.967 83.386,254.583 83.489 C 254.217 83.587,251.892 83.743,249.417 83.834 C 239.478 84.200,236.379 84.351,235.583 84.508 C 235.125 84.598,233.771 84.742,232.574 84.828 C 231.377 84.914,230.191 85.062,229.938 85.158 C 229.658 85.265,227.607 85.337,224.697 85.343 C 222.068 85.348,219.054 85.425,218.000 85.514 C 211.381 86.072,209.480 86.197,205.667 86.329 C 203.329 86.410,200.726 86.550,199.882 86.641 C 199.039 86.732,198.189 86.764,197.995 86.714 C 197.321 86.537,190.833 87.028,190.833 87.256 C 190.833 87.558,191.707 87.615,196.500 87.629 C 201.432 87.643,202.833 87.554,202.833 87.226 C 202.833 87.042,203.575 86.999,206.792 86.995 C 210.008 86.990,210.811 86.944,211.074 86.745 C 211.341 86.543,212.235 86.500,216.204 86.500 C 220.323 86.500,221.024 86.464,221.106 86.250 C 221.189 86.036,221.878 86.000,225.903 86.000 C 229.777 86.000,230.660 85.957,230.926 85.755 C 231.200 85.549,232.443 85.510,238.946 85.505 C 245.484 85.501,246.680 85.463,246.887 85.255 C 247.085 85.058,247.772 85.007,250.441 84.993 C 252.998 84.979,253.808 84.923,254.004 84.745 C 254.189 84.579,254.840 84.509,256.367 84.490 C 257.671 84.474,258.628 84.386,258.874 84.258 C 259.151 84.114,260.755 84.023,264.146 83.960 C 268.261 83.882,269.064 83.827,269.309 83.605 C 269.557 83.381,270.234 83.340,273.923 83.328 C 277.374 83.316,278.298 83.266,278.503 83.080 C 278.713 82.891,280.036 82.839,285.636 82.799 C 290.810 82.762,292.543 82.700,292.637 82.547 C 292.725 82.406,293.454 82.338,295.048 82.324 C 296.805 82.307,297.364 82.249,297.463 82.072 C 297.569 81.882,298.681 81.839,303.709 81.829 C 308.825 81.820,309.865 81.778,310.067 81.576 C 310.202 81.441,310.619 81.333,311.004 81.333 C 311.543 81.333,311.716 81.263,311.780 81.020 C 311.825 80.848,312.052 80.621,312.285 80.515 C 312.692 80.329,312.697 80.309,312.415 79.998 C 312.142 79.696,311.874 79.674,308.453 79.674 C 305.404 79.673,304.736 79.630,304.504 79.420 C 304.235 79.177,294.051 79.058,292.875 79.284 M179.583 87.658 C 178.374 87.955,179.994 88.083,184.952 88.083 C 189.623 88.083,190.184 88.054,190.438 87.800 C 190.741 87.497,180.772 87.366,179.583 87.658 M171.723 88.120 C 171.432 88.156,171.155 88.291,171.105 88.419 C 170.997 88.701,177.416 88.771,177.590 88.489 C 177.645 88.401,177.759 88.371,177.843 88.423 C 177.927 88.475,177.952 88.401,177.897 88.259 C 177.801 88.008,173.403 87.909,171.723 88.120 M165.500 88.618 C 163.086 88.810,164.331 89.173,167.333 89.152 C 170.109 89.133,171.374 88.867,169.750 88.644 C 168.891 88.526,166.820 88.513,165.500 88.618 M153.625 89.130 C 151.706 89.169,151.333 89.217,151.333 89.429 C 151.333 89.651,151.955 89.679,156.306 89.655 C 160.416 89.633,161.278 89.588,161.278 89.397 C 161.278 89.163,161.256 89.161,157.167 89.102 C 156.479 89.092,154.885 89.104,153.625 89.130 M137.749 89.835 C 137.555 90.148,138.081 90.171,144.570 90.127 C 149.579 90.093,151.071 90.036,151.125 89.875 C 151.214 89.607,137.915 89.567,137.749 89.835 M130.417 90.333 C 130.360 90.425,130.412 90.501,130.532 90.503 C 130.695 90.504,130.700 90.537,130.551 90.631 C 130.442 90.701,131.192 90.748,132.218 90.735 C 135.517 90.694,136.500 90.625,136.503 90.433 C 136.504 90.332,136.578 90.362,136.667 90.500 C 136.784 90.682,136.829 90.690,136.831 90.532 C 136.832 90.412,136.903 90.357,136.988 90.410 C 137.074 90.462,137.191 90.429,137.248 90.336 C 137.318 90.223,136.208 90.167,133.936 90.167 C 131.838 90.167,130.480 90.231,130.417 90.333 M125.750 90.844 L 125.250 90.946 125.714 91.076 C 126.856 91.395,128.333 91.292,128.333 90.893 C 128.333 90.645,126.864 90.618,125.750 90.844 M114.542 91.279 C 113.760 91.360,113.608 91.604,114.241 91.763 C 114.960 91.943,120.658 91.742,120.872 91.528 C 121.021 91.379,120.970 91.332,120.658 91.328 C 120.434 91.325,119.125 91.296,117.750 91.264 C 116.375 91.232,114.931 91.238,114.542 91.279 M105.417 91.826 C 102.258 91.958,102.717 92.239,106.193 92.301 C 108.249 92.337,109.199 92.291,109.569 92.137 L 110.083 91.922 109.583 91.814 C 109.025 91.693,108.534 91.695,105.417 91.826 " stroke="none" fill="#e1b32f" fill-rule="evenodd"/></g></svg>